<?xml version="1.0" encoding="UTF-8" standalone="no"?>
<!-- Generator: Adobe Illustrator 12.0.0, SVG Export Plug-In . SVG Version: 6.00 Build 51448)  -->

<svg
   xmlns:ns="http://ns.adobe.com/SaveForWeb/1.0/"
   xmlns:dc="http://purl.org/dc/elements/1.1/"
   xmlns:cc="http://creativecommons.org/ns#"
   xmlns:rdf="http://www.w3.org/1999/02/22-rdf-syntax-ns#"
   xmlns:svg="http://www.w3.org/2000/svg"
   xmlns="http://www.w3.org/2000/svg"
   xmlns:xlink="http://www.w3.org/1999/xlink"
   xmlns:sodipodi="http://sodipodi.sourceforge.net/DTD/sodipodi-0.dtd"
   xmlns:inkscape="http://www.inkscape.org/namespaces/inkscape"
   version="1.1"
   id="Layer_1"
   width="128"
   height="128"
   viewBox="0 0 128 128"
   overflow="visible"
   enable-background="new 0 0 128 128"
   xml:space="preserve"
   sodipodi:version="0.32"
   inkscape:version="0.48.4 r9939"
   sodipodi:docname="icon.svg"
   inkscape:output_extension="org.inkscape.output.svgz.inkscape"
   inkscape:export-filename="/Users/david/Desktop/sandbox/document-new2.png"
   inkscape:export-xdpi="22.5"
   inkscape:export-ydpi="22.5"><defs
   id="defs105"><radialGradient
     gradientUnits="userSpaceOnUse"
     r="139.55859"
     cy="112.3047"
     cx="102"
     id="radialGradient6542">
	
	
	
	
	
	<stop
   id="stop6548"
   style="stop-color:#ececec;stop-opacity:0.75;"
   offset="0" />
	<stop
   id="stop6550"
   style="stop-color:#fafafa;stop-opacity:0.75;"
   offset="0.23630001" />
	<stop
   id="stop6552"
   style="stop-color:#ffffff;stop-opacity:0.75;"
   offset="0.27219999" />
	<stop
   id="stop6554"
   style="stop-color:#fafafa;stop-opacity:0.75;"
   offset="0.53130001" />
	<stop
   id="stop6556"
   style="stop-color:#ececec;stop-opacity:0.75;"
   offset="0.84490001" />
	<stop
   id="stop6558"
   style="stop-color:#e1e2e3;stop-opacity:0.75396818;"
   offset="1" />
</radialGradient><radialGradient
     gradientUnits="userSpaceOnUse"
     r="139.55859"
     cy="112.3047"
     cx="102"
     id="radialGradient6504">
	<stop
   id="stop6506"
   style="stop-color:#535557"
   offset="0" />
	
	<stop
   id="stop6508"
   style="stop-color:#898A8C"
   offset="0.11366145" />
	
	
	<stop
   id="stop6510"
   style="stop-color:#ECECEC"
   offset="0.20296688" />
	<stop
   id="stop6512"
   style="stop-color:#FAFAFA"
   offset="0.2363" />
	<stop
   id="stop6514"
   style="stop-color:#FFFFFF"
   offset="0.2722" />
	<stop
   id="stop6516"
   style="stop-color:#FAFAFA"
   offset="0.5313" />
	<stop
   id="stop6518"
   style="stop-color:#EBECEC"
   offset="0.52501637" />
	<stop
   id="stop6520"
   style="stop-color:#E1E2E3"
   offset="1" />
</radialGradient><linearGradient
     id="linearGradient4749"
     gradientUnits="userSpaceOnUse"
     x1="-84.002403"
     y1="-383.9971"
     x2="-12.0029"
     y2="-383.9971"
     gradientTransform="matrix(0,1,-1,0,-39.9985,140.0029)"><stop
       offset="0"
       style="stop-color:#8c0000;stop-opacity:1;"
       id="stop4751" /><stop
       offset="1"
       style="stop-color:#bf0000;stop-opacity:1;"
       id="stop4753" /></linearGradient><linearGradient
     id="linearGradient4719"
     gradientUnits="userSpaceOnUse"
     x1="-84.002403"
     y1="-383.9971"
     x2="-12.0029"
     y2="-383.9971"
     gradientTransform="matrix(0,1,-1,0,-39.9985,140.0029)"><stop
       offset="0"
       style="stop-color:#ffe500;stop-opacity:1;"
       id="stop4721" /><stop
       offset="1"
       style="stop-color:#f5bf00;stop-opacity:0;"
       id="stop4723" /></linearGradient><linearGradient
     id="linearGradient4713"
     gradientUnits="userSpaceOnUse"
     x1="-84.002403"
     y1="-383.9971"
     x2="-23.516129"
     y2="-383.9975"
     gradientTransform="matrix(0,1,-1,0,-39.9985,140.0029)"><stop
       offset="0"
       style="stop-color:white;stop-opacity:1;"
       id="stop4715" /><stop
       offset="1"
       style="stop-color:white;stop-opacity:0;"
       id="stop4717" /></linearGradient><linearGradient
     id="linearGradient4707"><stop
       style="stop-color:#ff0000;stop-opacity:1;"
       offset="0"
       id="stop4709" /><stop
       style="stop-color:#650000;stop-opacity:1;"
       offset="1"
       id="stop4711" /></linearGradient><linearGradient
     id="linearGradient4693"><stop
       id="stop4695"
       offset="0"
       style="stop-color:#4d0000;stop-opacity:0;" /><stop
       style="stop-color:#4d0000;stop-opacity:1;"
       offset="0.5"
       id="stop4697" /><stop
       id="stop4699"
       offset="1"
       style="stop-color:#4d0000;stop-opacity:0;" /></linearGradient><inkscape:perspective
     sodipodi:type="inkscape:persp3d"
     inkscape:vp_x="0 : 64 : 1"
     inkscape:vp_y="0 : 1000 : 0"
     inkscape:vp_z="128 : 64 : 1"
     inkscape:persp3d-origin="64 : 42.666667 : 1"
     id="perspective3298" /><filter
     inkscape:collect="always"
     id="filter5943"><feGaussianBlur
       inkscape:collect="always"
       stdDeviation="1.04"
       id="feGaussianBlur5945" /></filter><linearGradient
     id="linearGradient6740"><stop
       style="stop-color:#004d00;stop-opacity:0;"
       offset="0"
       id="stop6742" /><stop
       id="stop6748"
       offset="0.5"
       style="stop-color:#004d00;stop-opacity:1;" /><stop
       style="stop-color:#004d00;stop-opacity:0;"
       offset="1"
       id="stop6744" /></linearGradient><linearGradient
     gradientTransform="matrix(0,1,-1,0,-39.9985,140.0029)"
     y2="-383.9975"
     x2="-23.516129"
     y1="-383.9971"
     x1="-84.002403"
     gradientUnits="userSpaceOnUse"
     id="linearGradient3711"><stop
       id="stop3713"
       style="stop-color:white;stop-opacity:1;"
       offset="0" /><stop
       id="stop3715"
       style="stop-color:white;stop-opacity:0;"
       offset="1" /></linearGradient><filter
     inkscape:collect="always"
     id="filter7317"><feGaussianBlur
       inkscape:collect="always"
       stdDeviation="2.8805897"
       id="feGaussianBlur7319" /></filter><clipPath
     clipPathUnits="userSpaceOnUse"
     id="clipPath5163"><circle
       sodipodi:ry="36"
       sodipodi:rx="36"
       sodipodi:cy="92"
       sodipodi:cx="343.99899"
       style="fill:url(#linearGradient5167);fill-opacity:1"
       r="36"
       rx="8.0010004"
       cx="343.99899"
       cy="92"
       ry="8.0010004"
       id="circle5165" /></clipPath><linearGradient
     id="linearGradient4296"><stop
       id="stop4298"
       offset="0"
       style="stop-color:#00ff00;stop-opacity:1" /><stop
       id="stop4300"
       offset="1"
       style="stop-color:#006500;stop-opacity:1" /></linearGradient><linearGradient
     inkscape:collect="always"
     xlink:href="#linearGradient4296"
     id="linearGradient4272"
     gradientUnits="userSpaceOnUse"
     x1="328.12448"
     y1="120.81158"
     x2="336.98077"
     y2="87.759453" /><linearGradient
     gradientTransform="matrix(0,1,-1,0,-39.9985,140.0029)"
     y2="-383.9971"
     x2="-12.0029"
     y1="-383.9971"
     x1="-84.002403"
     gradientUnits="userSpaceOnUse"
     id="linearGradient4770"><stop
       id="stop4772"
       style="stop-color:#e5ff00;stop-opacity:1"
       offset="0" /><stop
       id="stop4774"
       style="stop-color:#bff500;stop-opacity:0;"
       offset="1" /></linearGradient><linearGradient
     gradientTransform="matrix(0,1,-1,0,-39.9985,140.0029)"
     y2="-383.9971"
     x2="-12.0029"
     y1="-383.9971"
     x1="-84.002403"
     gradientUnits="userSpaceOnUse"
     id="linearGradient5958"><stop
       id="stop5960"
       style="stop-color:#008c00;stop-opacity:1"
       offset="0" /><stop
       id="stop5962"
       style="stop-color:#00bf00;stop-opacity:1"
       offset="1" /></linearGradient><filter
     inkscape:collect="always"
     id="filter4292"><feGaussianBlur
       inkscape:collect="always"
       stdDeviation="2.1604423"
       id="feGaussianBlur4294" /></filter><linearGradient
     y2="0"
     x2="28"
     y1="57.5"
     x1="28"
     gradientUnits="userSpaceOnUse"
     id="linearGradient18668">
			<stop
   id="stop18670"
   style="stop-color:#fffccf;stop-opacity:1;"
   offset="0" />
			<stop
   id="stop18672"
   style="stop-color:white;stop-opacity:0;"
   offset="1" />
		</linearGradient><linearGradient
     id="XMLID_2_"
     gradientUnits="userSpaceOnUse"
     x1="28"
     y1="57.5"
     x2="28"
     y2="0">
			<stop
   offset="0"
   style="stop-color:#FFEA00"
   id="stop12" />
			<stop
   offset="1"
   style="stop-color:#FFCC00"
   id="stop14" />
		</linearGradient><linearGradient
     inkscape:collect="always"
     xlink:href="#XMLID_2_"
     id="linearGradient2299"
     gradientUnits="userSpaceOnUse"
     x1="28"
     y1="57.5"
     x2="28"
     y2="0" /><radialGradient
     inkscape:collect="always"
     xlink:href="#linearGradient18668"
     id="radialGradient3239"
     gradientUnits="userSpaceOnUse"
     gradientTransform="matrix(1,0,0,1.2916104,-4,-19.57938)"
     cx="30.010139"
     cy="34.750149"
     fx="30.010139"
     fy="34.750149"
     r="20.78125" /><linearGradient
     inkscape:collect="always"
     xlink:href="#linearGradient4296"
     id="linearGradient3326"
     gradientUnits="userSpaceOnUse"
     x1="328.12448"
     y1="120.81158"
     x2="336.98077"
     y2="87.759453" /><radialGradient
     inkscape:collect="always"
     xlink:href="#XMLID_7_"
     id="radialGradient3368"
     gradientUnits="userSpaceOnUse"
     gradientTransform="translate(2.4e-6,0)"
     cx="102"
     cy="112.3047"
     r="139.5585" /><radialGradient
     inkscape:collect="always"
     xlink:href="#XMLID_8_"
     id="radialGradient3370"
     gradientUnits="userSpaceOnUse"
     gradientTransform="matrix(0.9787234,0,0,0.9818182,1.3617045,1.1636364)"
     cx="102"
     cy="112.3047"
     r="139.55859" /><linearGradient
     inkscape:collect="always"
     xlink:href="#XMLID_9_"
     id="linearGradient3372"
     gradientUnits="userSpaceOnUse"
     x1="94.3438"
     y1="102.3447"
     x2="86.5356"
     y2="94.5366" /><linearGradient
     inkscape:collect="always"
     xlink:href="#XMLID_10_"
     id="linearGradient3374"
     gradientUnits="userSpaceOnUse"
     x1="95"
     y1="103"
     x2="86.5865"
     y2="94.5865" /><linearGradient
     inkscape:collect="always"
     xlink:href="#XMLID_11_"
     id="linearGradient3376"
     gradientUnits="userSpaceOnUse"
     x1="95"
     y1="103"
     x2="87.293"
     y2="95.293" /><linearGradient
     inkscape:collect="always"
     xlink:href="#XMLID_12_"
     id="linearGradient3378"
     gradientUnits="userSpaceOnUse"
     x1="96"
     y1="104"
     x2="88.0002"
     y2="96.0002" /><radialGradient
     inkscape:collect="always"
     xlink:href="#XMLID_7_"
     id="radialGradient8018"
     gradientUnits="userSpaceOnUse"
     gradientTransform="translate(2.4e-6,0)"
     cx="102"
     cy="112.3047"
     r="139.5585" /><radialGradient
     inkscape:collect="always"
     xlink:href="#XMLID_8_"
     id="radialGradient8020"
     gradientUnits="userSpaceOnUse"
     gradientTransform="matrix(0.9787234,0,0,0.9818182,1.3617045,1.1636364)"
     cx="102"
     cy="112.3047"
     r="139.55859" /><linearGradient
     inkscape:collect="always"
     xlink:href="#XMLID_9_"
     id="linearGradient8022"
     gradientUnits="userSpaceOnUse"
     x1="94.3438"
     y1="102.3447"
     x2="86.5356"
     y2="94.5366" /><linearGradient
     inkscape:collect="always"
     xlink:href="#XMLID_10_"
     id="linearGradient8024"
     gradientUnits="userSpaceOnUse"
     x1="95"
     y1="103"
     x2="86.5865"
     y2="94.5865" /><linearGradient
     inkscape:collect="always"
     xlink:href="#XMLID_11_"
     id="linearGradient8026"
     gradientUnits="userSpaceOnUse"
     x1="95"
     y1="103"
     x2="87.293"
     y2="95.293" /><linearGradient
     inkscape:collect="always"
     xlink:href="#XMLID_12_"
     id="linearGradient8028"
     gradientUnits="userSpaceOnUse"
     x1="96"
     y1="104"
     x2="88.0002"
     y2="96.0002" /><radialGradient
     inkscape:collect="always"
     xlink:href="#XMLID_8_"
     id="radialGradient8036"
     gradientUnits="userSpaceOnUse"
     gradientTransform="matrix(0.9787234,0,0,0.9818182,1.3617021,1.1637411)"
     cx="102"
     cy="112.3047"
     r="139.55859" /><radialGradient
     inkscape:collect="always"
     xlink:href="#XMLID_7_"
     id="radialGradient8039"
     gradientUnits="userSpaceOnUse"
     gradientTransform="translate(0,1.047e-4)"
     cx="102"
     cy="112.3047"
     r="139.5585" /><linearGradient
     inkscape:collect="always"
     xlink:href="#linearGradient4296"
     id="linearGradient3764"
     gradientUnits="userSpaceOnUse"
     x1="328.12448"
     y1="120.81158"
     x2="336.98077"
     y2="87.759453" /><linearGradient
     id="linearGradient6740-8"><stop
       style="stop-color:#004d00;stop-opacity:0;"
       offset="0"
       id="stop6742-7" /><stop
       id="stop6748-5"
       offset="0.5"
       style="stop-color:#004d00;stop-opacity:1;" /><stop
       style="stop-color:#004d00;stop-opacity:0;"
       offset="1"
       id="stop6744-1" /></linearGradient><filter
     color-interpolation-filters="sRGB"
     inkscape:collect="always"
     id="filter5943-9"><feGaussianBlur
       inkscape:collect="always"
       stdDeviation="1.04"
       id="feGaussianBlur5945-3" /></filter><linearGradient
     gradientTransform="matrix(0,1,-1,0,-39.9985,140.0029)"
     y2="-383.9975"
     x2="-23.516129"
     y1="-383.9971"
     x1="-84.002403"
     gradientUnits="userSpaceOnUse"
     id="linearGradient3711-1"><stop
       id="stop3713-3"
       style="stop-color:white;stop-opacity:1;"
       offset="0" /><stop
       id="stop3715-2"
       style="stop-color:white;stop-opacity:0;"
       offset="1" /></linearGradient><linearGradient
     inkscape:collect="always"
     xlink:href="#linearGradient4707"
     id="linearGradient3764-0"
     gradientUnits="userSpaceOnUse"
     x1="328.12448"
     y1="120.81158"
     x2="336.98077"
     y2="87.759453" /><linearGradient
     id="linearGradient4296-5"><stop
       id="stop4298-7"
       offset="0"
       style="stop-color:#00ff00;stop-opacity:1" /><stop
       id="stop4300-2"
       offset="1"
       style="stop-color:#006500;stop-opacity:1" /></linearGradient><clipPath
     clipPathUnits="userSpaceOnUse"
     id="clipPath5163-7"><circle
       sodipodi:ry="36"
       sodipodi:rx="36"
       sodipodi:cy="92"
       sodipodi:cx="343.99899"
       style="fill:url(#linearGradient5167);fill-opacity:1"
       r="36"
       rx="8.0010004"
       cx="343.99899"
       cy="92"
       ry="8.0010004"
       id="circle5165-8" /></clipPath><filter
     color-interpolation-filters="sRGB"
     inkscape:collect="always"
     id="filter7317-4"><feGaussianBlur
       inkscape:collect="always"
       stdDeviation="2.8805897"
       id="feGaussianBlur7319-5" /></filter><linearGradient
     gradientTransform="matrix(0,1,-1,0,-39.9985,140.0029)"
     y2="-383.9971"
     x2="-12.0029"
     y1="-383.9971"
     x1="-84.002403"
     gradientUnits="userSpaceOnUse"
     id="linearGradient4770-4"><stop
       id="stop4772-4"
       style="stop-color:#e5ff00;stop-opacity:1"
       offset="0" /><stop
       id="stop4774-4"
       style="stop-color:#bff500;stop-opacity:0;"
       offset="1" /></linearGradient><linearGradient
     inkscape:collect="always"
     xlink:href="#linearGradient5958-8"
     id="linearGradient3760-2"
     gradientUnits="userSpaceOnUse"
     gradientTransform="matrix(0,1,-1,0,-39.9985,140.0029)"
     x1="-86.120354"
     y1="-381.09921"
     x2="-56.357521"
     y2="-373.1243" /><linearGradient
     gradientTransform="matrix(0,1,-1,0,-39.9985,140.0029)"
     y2="-383.9971"
     x2="-12.0029"
     y1="-383.9971"
     x1="-84.002403"
     gradientUnits="userSpaceOnUse"
     id="linearGradient5958-8"><stop
       id="stop5960-5"
       style="stop-color:#008c00;stop-opacity:1"
       offset="0" /><stop
       id="stop5962-8"
       style="stop-color:#00bf00;stop-opacity:1"
       offset="1" /></linearGradient><linearGradient
     inkscape:collect="always"
     xlink:href="#linearGradient4707"
     id="linearGradient4735"
     gradientUnits="userSpaceOnUse"
     x1="328.12448"
     y1="120.81158"
     x2="336.98077"
     y2="87.759453" /><linearGradient
     inkscape:collect="always"
     xlink:href="#linearGradient4707"
     id="linearGradient4745"
     gradientUnits="userSpaceOnUse"
     x1="328.12448"
     y1="120.81158"
     x2="336.98077"
     y2="87.759453" /><linearGradient
     inkscape:collect="always"
     xlink:href="#linearGradient4707"
     id="linearGradient4768"
     gradientUnits="userSpaceOnUse"
     x1="328.12448"
     y1="120.81158"
     x2="336.98077"
     y2="87.759453" /><linearGradient
     inkscape:collect="always"
     xlink:href="#linearGradient4296"
     id="linearGradient4789"
     gradientUnits="userSpaceOnUse"
     x1="328.12448"
     y1="120.81158"
     x2="336.98077"
     y2="87.759453" /><filter
     color-interpolation-filters="sRGB"
     inkscape:collect="always"
     id="filter4292-7"><feGaussianBlur
       inkscape:collect="always"
       stdDeviation="2.1604423"
       id="feGaussianBlur4294-6" /></filter><linearGradient
     inkscape:collect="always"
     xlink:href="#linearGradient4296"
     id="linearGradient4843"
     gradientUnits="userSpaceOnUse"
     x1="328.12448"
     y1="120.81158"
     x2="336.98077"
     y2="87.759453" /><linearGradient
     inkscape:collect="always"
     xlink:href="#linearGradient4707"
     id="linearGradient4864"
     gradientUnits="userSpaceOnUse"
     x1="328.12448"
     y1="120.81158"
     x2="336.98077"
     y2="87.759453" /><linearGradient
     inkscape:collect="always"
     xlink:href="#linearGradient4296"
     id="linearGradient4906"
     gradientUnits="userSpaceOnUse"
     x1="328.12448"
     y1="120.81158"
     x2="336.98077"
     y2="87.759453" /><linearGradient
     inkscape:collect="always"
     xlink:href="#linearGradient4707"
     id="linearGradient4916"
     gradientUnits="userSpaceOnUse"
     x1="328.12448"
     y1="120.81158"
     x2="336.98077"
     y2="87.759453" /><linearGradient
     inkscape:collect="always"
     xlink:href="#linearGradient4707"
     id="linearGradient4976"
     gradientUnits="userSpaceOnUse"
     x1="328.12448"
     y1="120.81158"
     x2="336.98077"
     y2="87.759453" /><linearGradient
     inkscape:collect="always"
     xlink:href="#linearGradient4296"
     id="linearGradient4986"
     gradientUnits="userSpaceOnUse"
     x1="328.12448"
     y1="120.81158"
     x2="336.98077"
     y2="87.759453" /><linearGradient
     inkscape:collect="always"
     xlink:href="#linearGradient5958"
     id="linearGradient5024"
     gradientUnits="userSpaceOnUse"
     gradientTransform="matrix(0,1,-1,0,-39.9985,140.0029)"
     x1="-86.120354"
     y1="-381.09921"
     x2="-56.357521"
     y2="-373.1243" /><radialGradient
     inkscape:collect="always"
     xlink:href="#linearGradient4770"
     id="radialGradient5026"
     gradientUnits="userSpaceOnUse"
     cx="343.99899"
     cy="92"
     fx="343.99899"
     fy="92"
     r="36" /><linearGradient
     inkscape:collect="always"
     xlink:href="#linearGradient4296"
     id="linearGradient5028"
     gradientUnits="userSpaceOnUse"
     x1="328.12448"
     y1="120.81158"
     x2="336.98077"
     y2="87.759453" /><linearGradient
     inkscape:collect="always"
     xlink:href="#linearGradient3711"
     id="linearGradient5030"
     gradientUnits="userSpaceOnUse"
     gradientTransform="matrix(0,0.59611507,-0.59611507,0,-14.68624,85.991264)"
     x1="-80.00296"
     y1="-131.93112"
     x2="-45.096584"
     y2="-131.93112" /><linearGradient
     inkscape:collect="always"
     xlink:href="#linearGradient6740"
     id="linearGradient5032"
     gradientUnits="userSpaceOnUse"
     gradientTransform="translate(20.000035,-56.000003)"
     x1="102"
     y1="118"
     x2="102"
     y2="65.932846" /><linearGradient
     inkscape:collect="always"
     xlink:href="#linearGradient4749"
     id="linearGradient5034"
     gradientUnits="userSpaceOnUse"
     gradientTransform="matrix(0,1,-1,0,-39.9985,140.0029)"
     x1="-86.120354"
     y1="-381.09921"
     x2="-56.357521"
     y2="-373.1243" /><radialGradient
     inkscape:collect="always"
     xlink:href="#linearGradient4719"
     id="radialGradient5036"
     gradientUnits="userSpaceOnUse"
     cx="343.99899"
     cy="92"
     fx="343.99899"
     fy="92"
     r="36" /><linearGradient
     inkscape:collect="always"
     xlink:href="#linearGradient4707"
     id="linearGradient5038"
     gradientUnits="userSpaceOnUse"
     x1="328.12448"
     y1="120.81158"
     x2="336.98077"
     y2="87.759453" /><linearGradient
     inkscape:collect="always"
     xlink:href="#linearGradient4713"
     id="linearGradient5040"
     gradientUnits="userSpaceOnUse"
     gradientTransform="matrix(0,0.59611507,-0.59611507,0,-14.68628,89.21868)"
     x1="-80.00296"
     y1="-131.93112"
     x2="-45.096584"
     y2="-131.93112" /><linearGradient
     inkscape:collect="always"
     xlink:href="#linearGradient4693"
     id="linearGradient5042"
     gradientUnits="userSpaceOnUse"
     gradientTransform="translate(20.000035,-56.000003)"
     x1="102"
     y1="118"
     x2="102"
     y2="65.932846" /><linearGradient
     inkscape:collect="always"
     xlink:href="#XMLID_9_"
     id="linearGradient6560"
     x1="4.7549853"
     y1="64"
     x2="123.24501"
     y2="64"
     gradientUnits="userSpaceOnUse"
     gradientTransform="matrix(1.0081195,0,0,1.0081195,-0.51964223,-0.5196339)" /><linearGradient
     inkscape:collect="always"
     xlink:href="#XMLID_12_"
     id="linearGradient6562"
     x1="2.9129896"
     y1="64"
     x2="125.08701"
     y2="64"
     gradientUnits="userSpaceOnUse" /></defs><sodipodi:namedview
   inkscape:window-height="949"
   inkscape:window-width="1579"
   inkscape:pageshadow="2"
   inkscape:pageopacity="0.0"
   guidetolerance="10.0"
   gridtolerance="10.0"
   objecttolerance="10.0"
   borderopacity="1.0"
   bordercolor="#666666"
   pagecolor="#ffffff"
   id="base"
   inkscape:zoom="4"
   inkscape:cx="9.9231143"
   inkscape:cy="62.383988"
   inkscape:window-x="61"
   inkscape:window-y="0"
   inkscape:current-layer="Layer_1"
   showgrid="true"
   showguides="true"
   inkscape:guide-bbox="true"
   inkscape:window-maximized="0"><inkscape:grid
     id="GridFromPre046Settings"
     type="xygrid"
     originx="0px"
     originy="0px"
     spacingx="4px"
     spacingy="4px"
     color="#3f3fff"
     empcolor="#3f3fff"
     opacity="0.15"
     empopacity="0.38"
     empspacing="2" /></sodipodi:namedview>
<metadata
   id="metadata3">
	<ns:sfw>
		<ns:slices>
			<ns:slice
   y="0"
   x="0"
   height="128"
   width="128"
   sliceID="1316743234" />
		</ns:slices>
		<ns:sliceSourceBounds
   y="0"
   x="0"
   height="128"
   width="128"
   bottomLeftOrigin="true" />
		<ns:optimizationSettings>
			<ns:targetSettings
   targetSettingsID="0"
   fileFormat="PNG24Format">
				<ns:PNG24Format
   transparency="true"
   filtered="false"
   matteColor="#FFFFFF"
   noMatteColor="false"
   interlaced="false">
					</ns:PNG24Format>
			</ns:targetSettings>
			<ns:targetSettings
   targetSettingsID="1696735251"
   fileFormat="PNG24Format">
				<ns:PNG24Format
   transparency="true"
   filtered="false"
   matteColor="#FFFFFF"
   noMatteColor="false"
   interlaced="false">
					</ns:PNG24Format>
			</ns:targetSettings>
		</ns:optimizationSettings>
	</ns:sfw>
<rdf:RDF><cc:Work
     rdf:about=""><dc:format>image/svg+xml</dc:format><dc:type
       rdf:resource="http://purl.org/dc/dcmitype/StillImage" /></cc:Work></rdf:RDF></metadata>

<radialGradient
   id="XMLID_7_"
   cx="102"
   cy="112.3047"
   r="139.5585"
   gradientUnits="userSpaceOnUse">
	<stop
   offset="0"
   style="stop-color:#00537D"
   id="stop16" />
	<stop
   offset="0.0151"
   style="stop-color:#186389"
   id="stop18" />
	<stop
   offset="0.0558"
   style="stop-color:#558CA8"
   id="stop20" />
	<stop
   offset="0.0964"
   style="stop-color:#89AFC3"
   id="stop22" />
	<stop
   offset="0.1357"
   style="stop-color:#B3CCD8"
   id="stop24" />
	<stop
   offset="0.1737"
   style="stop-color:#D4E2E9"
   id="stop26" />
	<stop
   offset="0.2099"
   style="stop-color:#ECF2F5"
   id="stop28" />
	<stop
   offset="0.2435"
   style="stop-color:#FAFCFD"
   id="stop30" />
	<stop
   offset="0.2722"
   style="stop-color:#FFFFFF"
   id="stop32" />
</radialGradient>

<radialGradient
   id="XMLID_8_"
   cx="102"
   cy="112.3047"
   r="139.55859"
   gradientUnits="userSpaceOnUse">
	<stop
   offset="0"
   style="stop-color:#535557"
   id="stop37" />
	
	<stop
   offset="0.11366145"
   style="stop-color:#898A8C"
   id="stop41" />
	
	
	<stop
   offset="0.20296688"
   style="stop-color:#ECECEC"
   id="stop47" />
	<stop
   offset="0.2363"
   style="stop-color:#FAFAFA"
   id="stop49" />
	<stop
   offset="0.2722"
   style="stop-color:#FFFFFF"
   id="stop51" />
	<stop
   offset="0.5313"
   style="stop-color:#FAFAFA"
   id="stop53" />
	<stop
   offset="0.8449"
   style="stop-color:#EBECEC"
   id="stop55" />
	<stop
   offset="1"
   style="stop-color:#E1E2E3"
   id="stop57" />
</radialGradient>

<linearGradient
   id="XMLID_9_"
   gradientUnits="userSpaceOnUse"
   x1="94.3438"
   y1="102.3447"
   x2="86.5356"
   y2="94.5366">
	<stop
   offset="0"
   style="stop-color:#FFFFFF"
   id="stop62" />
	<stop
   offset="1"
   style="stop-color:#555753"
   id="stop64" />
</linearGradient>

<linearGradient
   id="XMLID_10_"
   gradientUnits="userSpaceOnUse"
   x1="95"
   y1="103"
   x2="86.5865"
   y2="94.5865">
	<stop
   offset="0"
   style="stop-color:#FFFFFF"
   id="stop69" />
	<stop
   offset="1"
   style="stop-color:#555753"
   id="stop71" />
</linearGradient>

<linearGradient
   id="XMLID_11_"
   gradientUnits="userSpaceOnUse"
   x1="95"
   y1="103"
   x2="87.293"
   y2="95.293">
	<stop
   offset="0"
   style="stop-color:#FFFFFF"
   id="stop76" />
	<stop
   offset="1"
   style="stop-color:#393B38"
   id="stop78" />
</linearGradient>

<linearGradient
   id="XMLID_12_"
   gradientUnits="userSpaceOnUse"
   x1="96"
   y1="104"
   x2="88.0002"
   y2="96.0002">
	<stop
   offset="0"
   style="stop-color:#888A85"
   id="stop83" />
	<stop
   offset="0.0072"
   style="stop-color:#8C8E89"
   id="stop85" />
	<stop
   offset="0.0673"
   style="stop-color:#ABACA9"
   id="stop87" />
	<stop
   offset="0.1347"
   style="stop-color:#C5C6C4"
   id="stop89" />
	<stop
   offset="0.2115"
   style="stop-color:#DBDBDA"
   id="stop91" />
	<stop
   offset="0.3012"
   style="stop-color:#EBEBEB"
   id="stop93" />
	<stop
   offset="0.4122"
   style="stop-color:#F7F7F6"
   id="stop95" />
	<stop
   offset="0.5679"
   style="stop-color:#FDFDFD"
   id="stop97" />
	<stop
   offset="1"
   style="stop-color:#FFFFFF"
   id="stop99" />
</linearGradient>


<path
   style="fill:url(#linearGradient6562);fill-opacity:1.0;stroke:url(#linearGradient6560);stroke-width:3.51531291000000001;stroke-linecap:butt;stroke-linejoin:miter;stroke-miterlimit:4;stroke-opacity:1;stroke-dasharray:none"
   d="m 20.734004,124.32534 86.383206,0 c 8.13173,0 16.21214,-8.1577 16.21214,-15.99324 l -0.0529,-88.273427 c 0,-7.988166 -8.09919,-16.1299124 -16.15883,-16.1299124 L 19.395553,3.6746602 c -8.378917,0 -14.7249069,6.5563638 -14.7249069,14.9430258 l 1.01e-5,89.525414 c 0,8.0561 7.9782068,16.18224 16.0633478,16.18224 z"
   id="path6522"
   inkscape:connector-curvature="0"
   sodipodi:nodetypes="ccccccccc" /><g
   id="g4992"
   transform="matrix(0.96464009,0,0,0.96464009,4.099936,0.30944528)"><g
     inkscape:label="#g1866"
     id="DRAGON_2"
     style="display:inline"
     transform="matrix(1.0851261,0,0,1.0851261,-80.842583,-522.26945)"><g
       id="g4124"
       transform="translate(-35.36446,48.66417)"><path
         id="path4111"
         d="m 145.15688,443.63165 c -0.1893,-0.33392 -0.78605,-0.71044 -0.20301,-0.96362 0.87996,-0.93796 2.36878,-0.62689 3.17859,0.23837 1.1167,0.99581 2.13038,2.67864 1.31367,4.15841 -0.67149,1.13227 -1.81419,1.86087 -2.73316,2.77858 -0.41287,0.37642 -0.82001,0.75963 -1.27109,1.09078 1.32864,0.96018 2.66836,1.90534 3.99,2.875 1.36949,-1.22375 2.72333,-2.46386 3.99003,-3.79501 0.21058,-1.02461 -2.07471,-1.8769 -0.33489,-2.44734 1.38611,-0.71465 2.77037,0.53876 3.46008,1.65896 0.73549,1.05792 1.0221,2.60483 0.079,3.63688 -1.04113,1.06077 -2.29331,1.89419 -3.42879,2.85317 -0.38116,0.23832 0.5345,0.39996 0.73914,0.58468 1.92145,0.95956 3.8528,1.8975 5.84608,2.70022 1.06339,0.47639 2.17468,0.8668 3.21193,1.38816 0.52212,0.42231 1.30686,0.74553 1.22355,1.55832 -0.1309,0.84594 -1.07119,0.96209 -1.76139,0.85472 -2.02447,-0.1 -4.06121,-0.14102 -6.07804,-0.27762 -1.17089,-0.48121 -2.38964,-0.86719 -3.53061,-1.40792 -3.02521,-1.95144 -6.24577,-3.69561 -8.76401,-6.31427 -0.72538,-0.69515 -1.45075,-1.3903 -2.17613,-2.08545 -1.56281,0.89642 -3.07738,1.97539 -4.8288,2.46075 -0.97319,-0.31089 0.63958,-1.62177 0.93971,-2.12521 0.56048,-0.80927 1.72497,-1.56205 2.03202,-2.33737 -0.49871,-0.64639 -1.15552,-1.19458 -1.54601,-1.90818 -0.32901,-0.82854 0.12022,-1.92088 1.09466,-1.58474 0.49731,0.0561 1.08209,-0.12545 1.4311,0.33359 0.42544,0.34039 0.85088,0.68077 1.27632,1.02115 0.7203,-0.74446 1.52254,-1.39764 2.31682,-2.05595 0.45876,-0.46293 0.90606,-0.93377 1.12842,-1.55999 0.2835,-0.4726 -0.3223,-1.00339 -0.59524,-1.32907 z"
         style="fill:#006633"
         inkscape:connector-curvature="0" /><path
         id="path4109"
         d="m 121.55888,446.10416 c 0.94768,0.0825 1.77633,0.98295 2.61698,1.47405 1.46198,1.04568 2.96019,2.04169 4.39403,3.12595 1.13324,-1.13273 2.33334,-2.20286 3.42021,-3.37903 0.66978,-0.90504 1.43545,-2.16829 0.85478,-3.29097 -0.56281,-0.43924 -1.02487,-1.03784 -1.65896,-1.36437 -0.64401,-0.27354 -1.28803,-0.54709 -1.93204,-0.82064 0.43422,-1.19598 1.93963,-1.52509 3.05306,-1.77171 1.58172,-0.19482 2.88657,0.80589 4.02113,1.75858 0.65107,0.56611 1.4212,1.01273 1.98258,1.66896 0.8078,0.986 0.52159,2.40414 -0.24893,3.31899 -1.88947,2.68704 -4.44685,4.81803 -7.21606,6.54961 -3.59128,2.21707 -7.29524,4.41308 -11.39778,5.53085 -1.74962,0.43418 -3.61197,0.53103 -5.38361,0.18732 -1.3035,-0.46858 0.18223,-1.8459 1.08355,-1.74396 1.9393,-0.47351 3.92052,-0.79386 5.81969,-1.41545 1.74744,-0.63206 3.35146,-1.61223 4.80937,-2.75568 -1.25567,-1.24439 -2.51421,-2.49931 -3.7738,-3.73031 -0.77026,-0.92456 -1.06456,-2.25432 -0.4442,-3.34219 z"
         style="fill:#006633"
         inkscape:connector-curvature="0" /><path
         id="path4107"
         d="m 131.76189,459.27167 c 0.51474,2.20031 0.30758,4.48079 0.32728,6.72034 -0.20103,1.74087 -0.20481,3.5121 -0.57399,5.22729 -0.30199,1.58504 -1.6308,2.7925 -3.22852,2.97541 -2.67939,0.5803 -5.42131,0.16679 -8.11881,0.005 -0.67617,-0.43494 -0.64958,0.33035 -0.78656,0.81629 -0.32799,1.37842 -0.53158,2.78156 -0.90041,4.15074 2.74888,0.2751 5.52731,0.64605 8.28452,0.37033 0.88689,-0.31152 1.69791,-0.75986 2.43148,-1.34784 0.92196,-0.11055 2.08417,-0.77327 2.78766,0.17071 1.01458,1.75935 0.33814,3.81972 0.21068,5.71347 -0.3497,2.82689 -0.40712,5.799 -1.88684,8.32911 -0.86841,1.99917 -3.09701,3.11288 -5.22134,2.99459 -1.09705,0.0236 -2.20015,0.11841 -3.2688,-0.1928 -1.48133,-0.18348 -2.88364,-0.76776 -4.02763,-1.73258 -1.14619,-0.6796 -1.91935,-1.91066 -2.15973,-3.20099 -0.18785,-0.7151 0.70219,-0.28402 1.04036,-0.10767 1.414,0.61081 2.78023,1.36396 4.24146,1.84621 1.17293,0.36347 2.45675,0.47313 3.59449,-0.0673 0.92179,-0.30903 1.97674,-0.58569 2.35981,-1.61124 0.62533,-1.41749 0.87524,-2.97304 1.13288,-4.49397 0.18388,-1.04648 0.17627,-2.09775 0.0651,-3.15161 -0.23898,-0.29145 -0.98374,-0.0437 -1.41906,-0.12589 -3.12066,0 -6.24133,0 -9.362,0 -0.85337,1.04866 -1.62726,2.17058 -2.53316,3.1708 -1.36228,0.6612 -0.68131,-1.95928 -0.64548,-2.67757 0.68788,-3.78902 1.30867,-7.60066 2.13839,-11.35714 0.33054,-1.06084 1.51364,-1.05958 2.41896,-0.9626 2.46734,0.0156 4.95114,0.3396 7.40441,-0.0331 1.02031,-0.0236 1.64221,-0.81011 1.74244,-1.75035 0.5197,-1.68824 0.85213,-3.43123 0.87157,-5.2008 0.21788,-1.48104 -1.4556,-1.82423 -2.58264,-1.87358 -1.48857,0.12199 -2.996,0.1033 -4.45933,0.40525 -1.79783,-0.30011 -0.0297,-2.99902 1.27871,-2.96102 2.36932,-0.60909 4.82809,-0.71112 7.25102,-0.97055 0.64549,-0.0211 1.39023,0.24625 1.59312,0.92316 z"
         style="fill:#006633"
         inkscape:connector-curvature="0" /><path
         id="path4105"
         d="m 137.91788,459.38666 c 0.87971,-0.46197 1.90827,-0.57741 2.88028,-0.75285 2.07526,-0.32469 4.16956,-0.002 6.1831,0.51294 0.98986,0.21401 2.20097,0.49544 2.61472,1.53568 0.17026,0.86853 -0.3695,1.65933 -0.58091,2.47813 -0.52704,1.72607 -1.27988,3.48053 -1.14774,5.32003 0.1827,1.66161 1.69981,2.96542 3.29414,3.22073 1.06381,0.075 1.84296,-0.75904 2.71832,-1.22767 0.3264,-0.1927 0.62466,-0.4967 1.03293,-0.36545 0.45306,0.0295 0.90612,0.059 1.35918,0.0885 0.9549,0.71262 0.63796,2.08631 0.34729,3.06721 -0.4834,1.65491 -2.27024,2.51304 -3.9,2.41954 -2.23235,-0.1416 -4.60229,-1.04206 -5.9156,-2.93822 -0.71625,-1.15042 -1.09213,-2.48332 -1.44365,-3.78119 -0.0488,-0.97471 0.21809,-1.94384 0.36394,-2.90694 0.12693,-0.79238 0.35419,-1.6264 0.117,-2.4154 -1.31842,-0.27312 -2.64099,-0.897 -4.00503,-0.51941 -0.88777,0.25694 -1.862,0.54384 -2.54106,1.17886 -0.70977,1.04122 -0.60179,2.35547 -0.86804,3.54158 -0.23658,1.26061 -0.3336,2.5529 -0.68789,3.78697 -0.38668,1.33387 -1.50637,2.47974 -2.92926,2.62255 -0.49152,0.17294 -1.95473,0.27455 -1.35316,-0.57441 0.36767,-0.91954 1.3396,-1.41155 1.77888,-2.29408 0.91457,-1.69783 0.84535,-3.69719 0.92224,-5.5693 0.1016,-1.70089 -0.43856,-3.50736 0.29702,-5.12233 0.27465,-0.64624 0.91628,-0.93896 1.4633,-1.30543 z"
         style="fill:#006633"
         inkscape:connector-curvature="0" /><path
         id="path4103"
         d="m 140.71088,479.22415 c -1.28145,-0.18035 -2.63525,-0.0775 -3.83971,-0.60599 -1.39223,-0.60161 -0.0535,-1.5621 0.87282,-1.49297 1.68611,-0.24944 3.3945,-0.35186 5.09221,-0.48366 3.60062,0.14202 7.20341,0.25412 10.80268,0.41486 1.27354,-0.009 1.89102,1.38123 1.42411,2.45858 -0.60071,1.78618 -1.59667,3.40468 -2.39663,5.10525 -0.29916,0.59714 -0.59832,1.19429 -0.89748,1.79143 2.39548,0.90996 4.89749,1.68009 7.0482,3.10681 1.00882,0.81494 0.46692,2.29582 0.16944,3.33859 -0.35223,0.9144 -0.73878,2.30456 -1.91439,2.33324 -0.83688,-0.25834 -1.51336,-0.87998 -2.2761,-1.30478 -1.99705,-1.26461 -3.9941,-2.52922 -5.99114,-3.79384 -0.66846,0.91562 -1.62371,1.56696 -2.42407,2.36102 -1.57319,1.37269 -3.58609,2.10621 -5.49894,2.87147 -1.73091,0.086 -3.46499,0.21619 -5.19392,0.27461 -0.93378,-0.23091 -1.93528,-0.27393 -2.79677,-0.72383 0.21929,-0.38684 0.75627,-0.49524 1.1747,-0.6322 2.16736,-0.76979 4.43253,-1.24484 6.57413,-2.08361 1.56735,-0.69387 3.00513,-1.67875 4.14765,-2.96001 0.79289,-0.4624 0.50538,-1.44582 -0.28985,-1.77761 -1.7318,-0.98205 -3.44698,-2.00081 -5.05408,-3.18247 -1.46671,-1.10328 -3.04335,-2.09039 -4.36439,-3.36877 -0.3602,-0.94338 1.49814,-0.12355 1.97259,-0.0565 3.61308,1.13932 7.10822,2.61519 10.61294,4.04539 0.64998,-1.0898 1.46272,-2.14232 1.767,-3.3925 0.12055,-0.7695 -0.56119,-1.15515 -1.21555,-1.17937 -1.3646,-0.29365 -2.73007,-0.58178 -4.12497,-0.68423 -1.12683,-0.1263 -2.25366,-0.2526 -3.38048,-0.37891 z"
         style="fill:#006633"
         inkscape:connector-curvature="0" /></g><use
       style="display:inline"
       x="0"
       y="0"
       inkscape:tiled-clone-of="#facesize"
       xlink:href="#facesize"
       transform="translate(52.00034,355.9996)"
       id="use8906"
       width="774"
       height="1060" /></g><g
     transform="matrix(0.81949597,0,0,0.81949597,30.223507,-19.948745)"
     id="g4829"><circle
       d="m 379.99899,92 c 0,19.88225 -16.11775,36 -36,36 -19.88225,0 -36,-16.11775 -36,-36 0,-19.882251 16.11775,-36 36,-36 19.88225,0 36,16.117749 36,36 z"
       transform="matrix(-0.69262106,0.18558727,-0.18558727,-0.69262106,319.33498,63.879304)"
       id="circle4274"
       ry="8.0010004"
       cy="92"
       cx="343.99899"
       rx="8.0010004"
       r="36"
       style="opacity:0.5;fill:#000000;fill-opacity:1;filter:url(#filter4292)"
       sodipodi:cx="343.99899"
       sodipodi:cy="92"
       sodipodi:rx="36"
       sodipodi:ry="36" /><circle
       d="m 379.99899,92 c 0,19.88225 -16.11775,36 -36,36 -19.88225,0 -36,-16.11775 -36,-36 0,-19.882251 16.11775,-36 36,-36 19.88225,0 36,16.117749 36,36 z"
       sodipodi:ry="36"
       sodipodi:rx="36"
       sodipodi:cy="92"
       sodipodi:cx="343.99899"
       style="fill:url(#linearGradient5024);fill-opacity:1"
       r="36"
       rx="8.0010004"
       cx="343.99899"
       cy="92"
       ry="8.0010004"
       id="circle3581_2_"
       transform="matrix(-0.69262106,0.18558727,-0.18558727,-0.69262106,319.33498,60.651904)" /><circle
       d="m 379.99899,92 c 0,19.88225 -16.11775,36 -36,36 -19.88225,0 -36,-16.11775 -36,-36 0,-19.882251 16.11775,-36 36,-36 19.88225,0 36,16.117749 36,36 z"
       transform="matrix(-0.51946584,0.13919043,-0.13919043,-0.51946584,255.50126,60.682084)"
       id="circle4383"
       ry="8.0010004"
       cy="92"
       cx="343.99899"
       rx="8.0010004"
       r="36"
       style="fill:url(#radialGradient5026);fill-opacity:1"
       sodipodi:cx="343.99899"
       sodipodi:cy="92"
       sodipodi:rx="36"
       sodipodi:ry="36" /><circle
       d="m 379.99899,92 c 0,19.88225 -16.11775,36 -36,36 -19.88225,0 -36,-16.11775 -36,-36 0,-19.882251 16.11775,-36 36,-36 19.88225,0 36,16.117749 36,36 z"
       clip-path="url(#clipPath5163)"
       transform="matrix(-0.69262106,-0.18558727,-0.18558727,0.69262106,319.33498,60.893264)"
       id="circle4776"
       ry="8.0010004"
       cy="92"
       cx="343.99899"
       rx="8.0010004"
       r="36"
       style="opacity:0.8;fill:none;stroke:url(#linearGradient5028);stroke-width:6.75138187;stroke-miterlimit:4;stroke-opacity:1;stroke-dasharray:none;filter:url(#filter7317)"
       sodipodi:cx="343.99899"
       sodipodi:cy="92"
       sodipodi:rx="36"
       sodipodi:ry="36" /><path
       inkscape:connector-curvature="0"
       style="opacity:0.8;fill:url(#linearGradient5030);fill-opacity:1"
       d="m 64.000037,38.300324 c -9.154307,0 -16.803557,6.46417 -18.647227,15.07054 3.67493,3.4258 10.64793,5.7376 18.647227,5.7376 7.999309,0 14.972292,-2.3118 18.647224,-5.7376 -1.843662,-8.60637 -9.492924,-15.07054 -18.647224,-15.07054 z"
       id="circle16776" /><g
       id="g6850"
       transform="matrix(0.80685099,0,0,0.80685099,-34.43583,31.725954)"><path
         inkscape:connector-curvature="0"
         sodipodi:nodetypes="ccccccccccccc"
         style="fill:none;stroke:url(#linearGradient5032);stroke-width:4;stroke-linecap:round;stroke-linejoin:round;stroke-miterlimit:4;stroke-opacity:1;filter:url(#filter5943)"
         d="m 118.00003,15.999997 0,16 -16,0 0,8 16,0 0,16 8,0 0,-16 16,0 0,-8 -16,0 0,-16 -8,0 z"
         id="path4123" /><path
         inkscape:connector-curvature="0"
         sodipodi:nodetypes="ccccccccccccc"
         id="rect3232"
         d="m 118.00003,15.999997 0,16 -16,0 0,8 16,0 0,16 8,0 0,-16 16,0 0,-8 -16,0 0,-16 -8,0 z"
         style="fill:#ffffff;fill-opacity:1;fill-rule:evenodd;stroke:none" /></g></g><g
     inkscape:label="#g14211"
     transform="matrix(1.0144933,0,0,1.0144933,-132.9724,-505.39476)"
     id="DRAGON_3"
     style="display:inline"><path
       id="path2463"
       d="m 217.76855,549.60638 c -2.47838,-0.46057 -0.37511,1.47971 0.0564,2.52982 2.28451,3.58388 1.51706,7.97138 1.82198,11.99394 0.0592,1.66315 0.10192,3.3264 0.0454,4.99028 -5.07586,0.93462 -10.13708,1.96247 -15.2475,2.69531 -1.23106,-0.62645 -1.29066,-3.00586 -3.01127,-2.58 -1.47049,0.60322 -2.95718,1.16663 -4.43433,1.75347 2.40742,2.08647 3.50013,5.06001 4.7276,7.89498 2.11928,4.20232 3.99709,8.52857 5.26434,13.06473 1.06498,3.31343 6.1097,1.56677 3.88143,-1.67909 -0.72165,-0.90773 1.72801,-0.39952 2.32514,-0.72968 1.94379,-0.26446 3.8999,-0.41023 5.8533,-0.58219 -0.0837,4.97256 -0.23802,9.94307 -0.57001,14.90387 0.0643,4.49823 -0.13043,9.01129 0.10065,13.49996 0.0986,1.08468 0.15456,2.33081 1.11065,3.04148 2.46283,-0.98755 2.76367,-4.0617 3.1393,-6.39608 0.5766,-3.48701 0.27535,-7.05275 0.46488,-10.57447 0.10484,-5.01659 0.20968,-10.03318 0.31452,-15.04978 6.00555,-0.64812 12.04017,-1.06844 18.02629,-1.86877 1.6464,-0.49936 2.24958,-2.98665 0.19257,-3.40505 -2.0132,-0.0734 0.32546,-1.78073 0.66435,-2.74486 1.48084,-2.07483 2.7613,-4.33179 4.36716,-6.29298 1.28737,-1.14414 3.61352,-2.17203 2.29283,-4.26801 -1.23484,-1.85109 -3.37532,-2.81649 -5.02321,-4.27659 -2.38489,-2.65255 -5.34381,-0.48727 -7.67118,0.8706 -3.93159,1.1301 -8.01416,1.45329 -12.06501,1.89661 0.0829,-4.25722 0.5365,-8.50199 0.66125,-12.76028 0.48276,-1.26093 2.38967,-3.08806 0.11908,-3.90967 -2.1844,-1.45563 -4.79257,-2.14332 -7.40663,-2.01755 z m 21.62439,21.16718 c 0.47136,2.54823 -0.37056,5.3917 -1.00819,7.93142 -0.76213,1.89731 -0.80914,4.92736 -3.46957,4.64246 -3.71545,0.685 -7.48739,0.96943 -11.23284,1.44174 0.23751,-4.21667 0.47501,-8.43335 0.71251,-12.65002 4.99671,-0.50918 9.96135,-1.42636 14.99809,-1.3656 z m -19.94999,2.1203 c -0.13063,4.12085 -0.26126,8.2417 -0.39189,12.36255 -3.25374,0.38332 -6.50747,0.76664 -9.7612,1.14996 -1.24687,-3.86926 -2.49374,-7.73852 -3.7406,-11.60779 4.63123,-0.6349 9.26246,-1.26981 13.89369,-1.90472 z"
       style="fill:#993300"
       inkscape:connector-curvature="0" /><use
       style="display:inline"
       x="0"
       y="0"
       inkscape:tiled-clone-of="#facesize"
       xlink:href="#facesize"
       transform="translate(172.25,424.5)"
       id="use8916"
       width="774"
       height="1060" /></g><g
     transform="matrix(0.81949597,0,0,0.81949597,-12.864137,43.956514)"
     id="g4849"><circle
       d="m 379.99899,92 c 0,19.88225 -16.11775,36 -36,36 -19.88225,0 -36,-16.11775 -36,-36 0,-19.882251 16.11775,-36 36,-36 19.88225,0 36,16.117749 36,36 z"
       transform="matrix(-0.69262106,0.18558727,-0.18558727,-0.69262106,319.33498,63.879304)"
       id="circle4274-7"
       ry="8.0010004"
       cy="92"
       cx="343.99899"
       rx="8.0010004"
       r="36"
       style="opacity:0.5;fill:#000000;fill-opacity:1;filter:url(#filter4292-7)"
       sodipodi:cx="343.99899"
       sodipodi:cy="92"
       sodipodi:rx="36"
       sodipodi:ry="36" /><g
       id="g4755"
       transform="translate(-4.0448712e-6,-3.1823705)"><circle
         transform="matrix(-0.69262106,0.18558727,-0.18558727,-0.69262106,319.33498,63.87932)"
         id="circle3581_2_-4"
         ry="8.0010004"
         cy="92"
         cx="343.99899"
         rx="8.0010004"
         r="36"
         style="fill:url(#linearGradient5034);fill-opacity:1;stroke-width:6.75123405;stroke-miterlimit:4;stroke-dasharray:none"
         sodipodi:cx="343.99899"
         sodipodi:cy="92"
         sodipodi:rx="36"
         sodipodi:ry="36"
         d="m 379.99899,92 c 0,19.88225 -16.11775,36 -36,36 -19.88225,0 -36,-16.11775 -36,-36 0,-19.882251 16.11775,-36 36,-36 19.88225,0 36,16.117749 36,36 z" /><circle
         sodipodi:ry="36"
         sodipodi:rx="36"
         sodipodi:cy="92"
         sodipodi:cx="343.99899"
         style="fill:url(#radialGradient5036);fill-opacity:1;stroke-width:9.00164509;stroke-miterlimit:4;stroke-dasharray:none"
         r="36"
         rx="8.0010004"
         cx="343.99899"
         cy="92"
         ry="8.0010004"
         id="circle4383-1"
         transform="matrix(-0.51946584,0.13919043,-0.13919043,-0.51946584,255.50125,63.9095)"
         d="m 379.99899,92 c 0,19.88225 -16.11775,36 -36,36 -19.88225,0 -36,-16.11775 -36,-36 0,-19.882251 16.11775,-36 36,-36 19.88225,0 36,16.117749 36,36 z" /><circle
         sodipodi:ry="36"
         sodipodi:rx="36"
         sodipodi:cy="92"
         sodipodi:cx="343.99899"
         style="opacity:0.8;fill:none;stroke:url(#linearGradient5038);stroke-width:6.75123405;stroke-miterlimit:4;stroke-opacity:1;stroke-dasharray:none;filter:url(#filter7317-4)"
         r="36"
         rx="8.0010004"
         cx="343.99899"
         cy="92"
         ry="8.0010004"
         id="circle4776-2"
         transform="matrix(-0.69262106,-0.18558727,-0.18558727,0.69262106,319.33498,64.120696)"
         clip-path="url(#clipPath5163-7)"
         d="m 379.99899,92 c 0,19.88225 -16.11775,36 -36,36 -19.88225,0 -36,-16.11775 -36,-36 0,-19.882251 16.11775,-36 36,-36 19.88225,0 36,16.117749 36,36 z" /><path
         id="circle16776-7"
         d="m 63.999997,41.52774 c -9.154307,0 -16.803557,6.46417 -18.647227,15.07054 3.67493,3.4258 10.64793,5.7376 18.647227,5.7376 7.999309,0 14.972292,-2.3118 18.647224,-5.7376 C 80.803559,47.99191 73.154298,41.52774 63.999997,41.52774 z"
         style="opacity:0.8;fill:url(#linearGradient5040);fill-opacity:1;stroke-width:4.84100008;stroke-miterlimit:4;stroke-dasharray:none"
         inkscape:connector-curvature="0" /><g
         id="g4703"><path
           id="path4123-3"
           d="m 102.00003,31.999997 0,8 c 41.1225,0 -0.76245,0 40,0 l 0,-8 c -40.91199,0.141997 -1.25163,0 -40,0 z"
           style="fill:none;stroke:url(#linearGradient5042);stroke-width:4;stroke-linecap:round;stroke-linejoin:round;stroke-miterlimit:4;stroke-opacity:1;filter:url(#filter5943-9)"
           sodipodi:nodetypes="ccccc"
           inkscape:connector-curvature="0"
           transform="matrix(0.80685099,0,0,0.80685099,-34.435845,34.953367)" /><path
           style="fill:#ffffff;fill-opacity:1;fill-rule:evenodd;stroke:none"
           d="m 47.862979,60.772595 0,6.45481 c 29.325763,0 2.317027,0 32.274042,0 l 0,-6.45481 c -31.761187,0 -7.124374,0 -32.274042,0 z"
           id="rect3232-6"
           sodipodi:nodetypes="ccccc"
           inkscape:connector-curvature="0" /></g></g></g></g></svg>