<?xml version="1.0" encoding="UTF-8" standalone="no"?>
<!-- Created with Inkscape (http://www.inkscape.org/) -->

<svg
   xmlns:dc="http://purl.org/dc/elements/1.1/"
   xmlns:cc="http://creativecommons.org/ns#"
   xmlns:rdf="http://www.w3.org/1999/02/22-rdf-syntax-ns#"
   xmlns:svg="http://www.w3.org/2000/svg"
   xmlns="http://www.w3.org/2000/svg"
   xmlns:xlink="http://www.w3.org/1999/xlink"
   xmlns:sodipodi="http://sodipodi.sourceforge.net/DTD/sodipodi-0.dtd"
   xmlns:inkscape="http://www.inkscape.org/namespaces/inkscape"
   width="100"
   height="100"
   id="svg3903"
   version="1.1"
   inkscape:version="0.48.4 r9939"
   sodipodi:docname="add.svg">
  <defs
     id="defs3905">
    <filter
       color-interpolation-filters="sRGB"
       inkscape:collect="always"
       id="filter4292">
      <feGaussianBlur
         inkscape:collect="always"
         stdDeviation="2.1604423"
         id="feGaussianBlur4294" />
    </filter>
    <linearGradient
       inkscape:collect="always"
       xlink:href="#linearGradient5958"
       id="linearGradient5024"
       gradientUnits="userSpaceOnUse"
       gradientTransform="matrix(0,1,-1,0,-39.9985,140.0029)"
       x1="-86.120354"
       y1="-381.09921"
       x2="-56.357521"
       y2="-373.1243" />
    <linearGradient
       gradientTransform="matrix(0,1,-1,0,-39.9985,140.0029)"
       y2="-383.9971"
       x2="-12.0029"
       y1="-383.9971"
       x1="-84.002403"
       gradientUnits="userSpaceOnUse"
       id="linearGradient5958">
      <stop
         id="stop5960"
         style="stop-color:#008c00;stop-opacity:1"
         offset="0" />
      <stop
         id="stop5962"
         style="stop-color:#00bf00;stop-opacity:1"
         offset="1" />
    </linearGradient>
    <radialGradient
       inkscape:collect="always"
       xlink:href="#linearGradient4770"
       id="radialGradient5026"
       gradientUnits="userSpaceOnUse"
       cx="343.99899"
       cy="92"
       fx="343.99899"
       fy="92"
       r="36" />
    <linearGradient
       gradientTransform="matrix(0,1,-1,0,-39.9985,140.0029)"
       y2="-383.9971"
       x2="-12.0029"
       y1="-383.9971"
       x1="-84.002403"
       gradientUnits="userSpaceOnUse"
       id="linearGradient4770">
      <stop
         id="stop4772"
         style="stop-color:#e5ff00;stop-opacity:1"
         offset="0" />
      <stop
         id="stop4774"
         style="stop-color:#bff500;stop-opacity:0;"
         offset="1" />
    </linearGradient>
    <linearGradient
       inkscape:collect="always"
       xlink:href="#linearGradient4296"
       id="linearGradient5028"
       gradientUnits="userSpaceOnUse"
       x1="328.12448"
       y1="120.81158"
       x2="336.98077"
       y2="87.759453" />
    <linearGradient
       id="linearGradient4296">
      <stop
         id="stop4298"
         offset="0"
         style="stop-color:#00ff00;stop-opacity:1" />
      <stop
         id="stop4300"
         offset="1"
         style="stop-color:#006500;stop-opacity:1" />
    </linearGradient>
    <clipPath
       clipPathUnits="userSpaceOnUse"
       id="clipPath5163">
      <circle
         sodipodi:ry="36"
         sodipodi:rx="36"
         sodipodi:cy="92"
         sodipodi:cx="343.99899"
         style="fill:url(#linearGradient5167);fill-opacity:1"
         r="36"
         rx="8.0010004"
         cx="343.99899"
         cy="92"
         ry="8.0010004"
         id="circle5165" />
    </clipPath>
    <filter
       color-interpolation-filters="sRGB"
       inkscape:collect="always"
       id="filter7317">
      <feGaussianBlur
         inkscape:collect="always"
         stdDeviation="2.8805897"
         id="feGaussianBlur7319" />
    </filter>
    <linearGradient
       inkscape:collect="always"
       xlink:href="#linearGradient3711"
       id="linearGradient5030"
       gradientUnits="userSpaceOnUse"
       gradientTransform="matrix(0,0.59611507,-0.59611507,0,-14.68624,85.991264)"
       x1="-80.00296"
       y1="-131.93112"
       x2="-45.096584"
       y2="-131.93112" />
    <linearGradient
       gradientTransform="matrix(0,1,-1,0,-39.9985,140.0029)"
       y2="-383.9975"
       x2="-23.516129"
       y1="-383.9971"
       x1="-84.002403"
       gradientUnits="userSpaceOnUse"
       id="linearGradient3711">
      <stop
         id="stop3713"
         style="stop-color:white;stop-opacity:1;"
         offset="0" />
      <stop
         id="stop3715"
         style="stop-color:white;stop-opacity:0;"
         offset="1" />
    </linearGradient>
    <linearGradient
       inkscape:collect="always"
       xlink:href="#linearGradient6740"
       id="linearGradient5032"
       gradientUnits="userSpaceOnUse"
       gradientTransform="translate(20.000035,-56.000003)"
       x1="102"
       y1="118"
       x2="102"
       y2="65.932846" />
    <linearGradient
       id="linearGradient6740">
      <stop
         style="stop-color:#004d00;stop-opacity:0;"
         offset="0"
         id="stop6742" />
      <stop
         id="stop6748"
         offset="0.5"
         style="stop-color:#004d00;stop-opacity:1;" />
      <stop
         style="stop-color:#004d00;stop-opacity:0;"
         offset="1"
         id="stop6744" />
    </linearGradient>
    <filter
       color-interpolation-filters="sRGB"
       inkscape:collect="always"
       id="filter5943">
      <feGaussianBlur
         inkscape:collect="always"
         stdDeviation="1.04"
         id="feGaussianBlur5945" />
    </filter>
    <linearGradient
       inkscape:collect="always"
       xlink:href="#XMLID_12_"
       id="linearGradient6562"
       x1="2.9129896"
       y1="64"
       x2="125.08701"
       y2="64"
       gradientUnits="userSpaceOnUse" />
    <linearGradient
       id="XMLID_12_"
       gradientUnits="userSpaceOnUse"
       x1="96"
       y1="104"
       x2="88.000198"
       y2="96.000198">
      <stop
         offset="0"
         style="stop-color:#5e5e5e;stop-opacity:0.49019608;"
         id="stop97" />
      <stop
         offset="1"
         style="stop-color:#444444;stop-opacity:0.49019608;"
         id="stop99" />
    </linearGradient>
    <linearGradient
       inkscape:collect="always"
       xlink:href="#XMLID_9_"
       id="linearGradient6560"
       x1="4.7549853"
       y1="64"
       x2="123.24501"
       y2="64"
       gradientUnits="userSpaceOnUse"
       gradientTransform="matrix(1.0081195,0,0,1.0081195,-0.51964223,-0.5196339)" />
    <linearGradient
       id="XMLID_9_"
       gradientUnits="userSpaceOnUse"
       x1="94.343803"
       y1="102.3447"
       x2="86.535599"
       y2="94.536598">
      <stop
         offset="0"
         style="stop-color:#FFFFFF"
         id="stop62" />
      <stop
         offset="1"
         style="stop-color:#555753"
         id="stop64" />
    </linearGradient>
    <linearGradient
       y2="64"
       x2="123.24501"
       y1="64"
       x1="4.7549853"
       gradientTransform="matrix(0.82534715,0,0,0.81172068,539.54147,619.47695)"
       gradientUnits="userSpaceOnUse"
       id="linearGradient3413"
       xlink:href="#XMLID_9_"
       inkscape:collect="always" />
    <radialGradient
       inkscape:collect="always"
       xlink:href="#XMLID_12_"
       id="radialGradient4265"
       cx="709.94708"
       cy="673.76776"
       fx="709.94708"
       fy="673.76776"
       r="61.087006"
       gradientTransform="matrix(0.81869972,0,0,0.81831102,11.130192,120.07544)"
       gradientUnits="userSpaceOnUse" />
  </defs>
  <sodipodi:namedview
     id="base"
     pagecolor="#ffffff"
     bordercolor="#666666"
     borderopacity="1.0"
     inkscape:pageopacity="0.0"
     inkscape:pageshadow="2"
     inkscape:zoom="4.5111862"
     inkscape:cx="79.286383"
     inkscape:cy="48.506603"
     inkscape:document-units="px"
     inkscape:current-layer="layer1"
     showgrid="false"
     fit-margin-top="0"
     fit-margin-left="0"
     fit-margin-right="0"
     fit-margin-bottom="0"
     inkscape:window-width="1533"
     inkscape:window-height="780"
     inkscape:window-x="72"
     inkscape:window-y="100"
     inkscape:window-maximized="0" />
  <metadata
     id="metadata3908">
    <rdf:RDF>
      <cc:Work
         rdf:about="">
        <dc:format>image/svg+xml</dc:format>
        <dc:type
           rdf:resource="http://purl.org/dc/dcmitype/StillImage" />
        <dc:title />
      </cc:Work>
    </rdf:RDF>
  </metadata>
  <g
     inkscape:label="Layer 1"
     inkscape:groupmode="layer"
     id="layer1"
     transform="translate(-542.36369,-621.42706)">
    <path
       style="fill:url(#radialGradient4265);fill-opacity:1;stroke:url(#linearGradient3413);stroke-width:2.85412908;stroke-linecap:butt;stroke-linejoin:miter;stroke-miterlimit:4;stroke-opacity:1;stroke-dasharray:none"
       d="m 556.94182,720 70.7219,0 c 6.65745,0 13.27288,-6.56844 13.27288,-12.87748 l -0.0433,-71.07627 c 0,-6.43193 -6.63081,-12.98752 -13.22923,-12.98752 l -71.81803,-0.20461 c -6.85982,0 -12.05527,5.27907 -12.05527,12.03187 l 0,72.08435 c 0,6.48663 6.53176,13.02966 13.15106,13.02966 z"
       id="path6522"
       inkscape:connector-curvature="0"
       sodipodi:nodetypes="ccccccccc" />
    <g
       id="g4829"
       transform="matrix(1.4388088,0,0,1.4388088,500.27992,579.3433)">
      <circle
         sodipodi:ry="36"
         sodipodi:rx="36"
         sodipodi:cy="92"
         sodipodi:cx="343.99899"
         style="opacity:0.5;fill:#000000;fill-opacity:1;filter:url(#filter4292)"
         r="36"
         rx="8.0010004"
         cx="343.99899"
         cy="92"
         ry="8.0010004"
         id="circle4274"
         transform="matrix(-0.69262106,0.18558727,-0.18558727,-0.69262106,319.33498,63.879304)"
         d="m 379.99899,92 c 0,19.88225 -16.11775,36 -36,36 -19.88225,0 -36,-16.11775 -36,-36 0,-19.882251 16.11775,-36 36,-36 19.88225,0 36,16.117749 36,36 z" />
      <circle
         transform="matrix(-0.69262106,0.18558727,-0.18558727,-0.69262106,319.33498,60.651904)"
         id="circle3581_2_"
         ry="8.0010004"
         cy="92"
         cx="343.99899"
         rx="8.0010004"
         r="36"
         style="fill:url(#linearGradient5024);fill-opacity:1"
         sodipodi:cx="343.99899"
         sodipodi:cy="92"
         sodipodi:rx="36"
         sodipodi:ry="36"
         d="m 379.99899,92 c 0,19.88225 -16.11775,36 -36,36 -19.88225,0 -36,-16.11775 -36,-36 0,-19.882251 16.11775,-36 36,-36 19.88225,0 36,16.117749 36,36 z" />
      <circle
         sodipodi:ry="36"
         sodipodi:rx="36"
         sodipodi:cy="92"
         sodipodi:cx="343.99899"
         style="fill:url(#radialGradient5026);fill-opacity:1"
         r="36"
         rx="8.0010004"
         cx="343.99899"
         cy="92"
         ry="8.0010004"
         id="circle4383"
         transform="matrix(-0.51946584,0.13919043,-0.13919043,-0.51946584,255.50126,60.682084)"
         d="m 379.99899,92 c 0,19.88225 -16.11775,36 -36,36 -19.88225,0 -36,-16.11775 -36,-36 0,-19.882251 16.11775,-36 36,-36 19.88225,0 36,16.117749 36,36 z" />
      <circle
         sodipodi:ry="36"
         sodipodi:rx="36"
         sodipodi:cy="92"
         sodipodi:cx="343.99899"
         style="opacity:0.8;fill:none;stroke:url(#linearGradient5028);stroke-width:6.75138187;stroke-miterlimit:4;stroke-opacity:1;stroke-dasharray:none;filter:url(#filter7317)"
         r="36"
         rx="8.0010004"
         cx="343.99899"
         cy="92"
         ry="8.0010004"
         id="circle4776"
         transform="matrix(-0.69262106,-0.18558727,-0.18558727,0.69262106,319.33498,60.893264)"
         clip-path="url(#clipPath5163)"
         d="m 379.99899,92 c 0,19.88225 -16.11775,36 -36,36 -19.88225,0 -36,-16.11775 -36,-36 0,-19.882251 16.11775,-36 36,-36 19.88225,0 36,16.117749 36,36 z" />
      <path
         id="circle16776"
         d="m 64.000037,38.300324 c -9.154307,0 -16.803557,6.46417 -18.647227,15.07054 3.67493,3.4258 10.64793,5.7376 18.647227,5.7376 7.999309,0 14.972292,-2.3118 18.647224,-5.7376 -1.843662,-8.60637 -9.492924,-15.07054 -18.647224,-15.07054 z"
         style="opacity:0.8;fill:url(#linearGradient5030);fill-opacity:1"
         inkscape:connector-curvature="0" />
      <g
         transform="matrix(0.80685099,0,0,0.80685099,-34.43583,31.725954)"
         id="g6850">
        <path
           id="path4123"
           d="m 118.00003,15.999997 0,16 -16,0 0,8 16,0 0,16 8,0 0,-16 16,0 0,-8 -16,0 0,-16 -8,0 z"
           style="fill:none;stroke:url(#linearGradient5032);stroke-width:4;stroke-linecap:round;stroke-linejoin:round;stroke-miterlimit:4;stroke-opacity:1;filter:url(#filter5943)"
           sodipodi:nodetypes="ccccccccccccc"
           inkscape:connector-curvature="0" />
        <path
           style="fill:#ffffff;fill-opacity:1;fill-rule:evenodd;stroke:none"
           d="m 118.00003,15.999997 0,16 -16,0 0,8 16,0 0,16 8,0 0,-16 16,0 0,-8 -16,0 0,-16 -8,0 z"
           id="rect3232"
           sodipodi:nodetypes="ccccccccccccc"
           inkscape:connector-curvature="0" />
      </g>
    </g>
  </g>
</svg>
