<?xml version="1.0" encoding="UTF-8" standalone="no"?>
<!-- Created with Inkscape (http://www.inkscape.org/) -->

<svg
   xmlns:dc="http://purl.org/dc/elements/1.1/"
   xmlns:cc="http://creativecommons.org/ns#"
   xmlns:rdf="http://www.w3.org/1999/02/22-rdf-syntax-ns#"
   xmlns:svg="http://www.w3.org/2000/svg"
   xmlns="http://www.w3.org/2000/svg"
   xmlns:xlink="http://www.w3.org/1999/xlink"
   xmlns:sodipodi="http://sodipodi.sourceforge.net/DTD/sodipodi-0.dtd"
   xmlns:inkscape="http://www.inkscape.org/namespaces/inkscape"
   width="80"
   height="100"
   id="svg3579"
   version="1.1"
   inkscape:version="0.48.4 r9939"
   sodipodi:docname="east.svg">
  <defs
     id="defs3581">
    <linearGradient
       inkscape:collect="always"
       xlink:href="#linearGradient27236"
       id="linearGradient3747"
       gradientUnits="userSpaceOnUse"
       gradientTransform="matrix(1.154862,0,0,1.199992,-217.6836,-1119)"
       spreadMethod="pad"
       x1="220.28651"
       y1="885.04584"
       x2="222.93102"
       y2="888.01709" />
    <linearGradient
       id="linearGradient27236">
      <stop
         id="stop27238"
         offset="0"
         style="stop-color:#5d5d5d;stop-opacity:1;" />
      <stop
         id="stop27240"
         offset="1"
         style="stop-color:black;stop-opacity:1;" />
    </linearGradient>
    <linearGradient
       inkscape:collect="always"
       xlink:href="#linearGradient28156"
       id="linearGradient3749"
       gradientUnits="userSpaceOnUse"
       gradientTransform="matrix(1.154862,0,0,1.199992,-212.5919,-1124.079)"
       spreadMethod="pad"
       x1="220.28651"
       y1="885.04584"
       x2="222.93102"
       y2="888.01709" />
    <linearGradient
       id="linearGradient28156">
      <stop
         id="stop28158"
         offset="0"
         style="stop-color:#e9e86e;stop-opacity:1;" />
      <stop
         id="stop28160"
         offset="1"
         style="stop-color:#e8a21a;stop-opacity:1;" />
    </linearGradient>
    <linearGradient
       inkscape:collect="always"
       xlink:href="#linearGradient3052"
       id="linearGradient3759"
       gradientUnits="userSpaceOnUse"
       gradientTransform="matrix(-1,0,0,1,146.16796,142.36524)"
       x1="205.16107"
       y1="35.479298"
       x2="205.16107"
       y2="48.081699" />
    <linearGradient
       id="linearGradient3052">
      <stop
         style="stop-color:#ffffff;stop-opacity:1;"
         offset="0"
         id="stop3054" />
      <stop
         style="stop-color:#ebebeb;stop-opacity:0;"
         offset="1"
         id="stop3056" />
    </linearGradient>
    <linearGradient
       inkscape:collect="always"
       xlink:href="#linearGradient2679"
       id="linearGradient3756"
       gradientUnits="userSpaceOnUse"
       gradientTransform="matrix(-0.995068,0,0,0.988025,-15.706636,287.60114)"
       x1="40.375843"
       y1="-27.558508"
       x2="40.375843"
       y2="-43.017994" />
    <linearGradient
       id="linearGradient2679">
      <stop
         style="stop-color:#e8a118;stop-opacity:0.93814433;"
         offset="0"
         id="stop2681" />
      <stop
         style="stop-color:#ebebeb;stop-opacity:0;"
         offset="1"
         id="stop2683" />
    </linearGradient>
    <linearGradient
       y2="-43.017994"
       x2="40.375843"
       y1="-27.558508"
       x1="40.375843"
       gradientTransform="matrix(-0.995068,0,0,0.988025,-15.706636,287.60114)"
       gradientUnits="userSpaceOnUse"
       id="linearGradient3896"
       xlink:href="#linearGradient2679"
       inkscape:collect="always" />
  </defs>
  <sodipodi:namedview
     id="base"
     pagecolor="#ffffff"
     bordercolor="#666666"
     borderopacity="1.0"
     inkscape:pageopacity="0.0"
     inkscape:pageshadow="2"
     inkscape:zoom="3.959798"
     inkscape:cx="90.084435"
     inkscape:cy="19.930041"
     inkscape:document-units="px"
     inkscape:current-layer="layer1"
     showgrid="false"
     fit-margin-top="0"
     fit-margin-left="0"
     fit-margin-right="0"
     fit-margin-bottom="0"
     inkscape:window-width="1920"
     inkscape:window-height="1060"
     inkscape:window-x="-2"
     inkscape:window-y="-3"
     inkscape:window-maximized="1" />
  <metadata
     id="metadata3584">
    <rdf:RDF>
      <cc:Work
         rdf:about="">
        <dc:format>image/svg+xml</dc:format>
        <dc:type
           rdf:resource="http://purl.org/dc/dcmitype/StillImage" />
        <dc:title />
      </cc:Work>
    </rdf:RDF>
  </metadata>
  <g
     inkscape:label="Layer 1"
     inkscape:groupmode="layer"
     id="layer1"
     transform="translate(89.34123,-305.26375)">
    <g
       style="display:inline"
       id="WIND_3"
       transform="matrix(1.1552572,0,0,1.0634007,-711.66802,-161.33001)"
       inkscape:label="#g14113">
      <g
         id="g11888">
        <path
           inkscape:connector-curvature="0"
           style="fill:#000000"
           d="m 541.78259,442.46947 7.866,0 0,1.7825 -5.757,0 0,2.415 5.358,0 0,1.7825 -5.358,0 0,2.9325 5.928,0 0,1.7825 -8.037,0 0,-10.695 z"
           id="path2455" />
        <path
           inkscape:connector-curvature="0"
           style="fill:#333333"
           d="m 566.50128,442.99796 c -1.80535,0.31581 -5.46437,1.66983 -5.59801,2.74021 2.09111,0.96554 3.68084,2.94377 3.63119,5.29894 0.33212,2.01304 0.34778,4.05002 0.39932,6.08429 -3.6003,1.25895 -7.44148,1.37728 -11.18628,1.90469 1.64969,1.4066 3.53987,3.39533 5.90654,2.57314 1.76401,-0.28294 3.52144,-0.60398 5.27974,-0.92003 0,2.20417 0,4.40834 0,6.61252 -4.10877,0.70676 -8.21753,1.41353 -12.3263,2.1203 -1.32918,-2.09395 -4.01862,-1.42458 -6.09192,-1.36563 0.16217,1.78928 2.00798,3.22936 2.35031,5.12737 1.82341,4.26233 3.41674,8.62748 4.66792,13.09295 2.98578,0.28435 5.73921,-1.29353 8.57177,-2.03491 0.12452,1.15316 -1.8269,3.50331 -3.08985,4.80674 -3.50441,4.18493 -8.2168,7.10262 -13.07012,9.48286 -0.15934,1.60854 2.47523,0.48968 3.25141,0.34658 4.99391,-1.63249 10.08297,-4.09792 13.15014,-8.52413 0.86221,-1.07155 1.72443,-2.14309 2.58664,-3.21464 -0.11549,4.71373 0.14254,9.4511 -0.61118,14.12445 -0.31081,3.90246 -1.74393,7.67702 -1.62137,11.60679 -0.46559,3.16301 4.80219,4.09963 4.97566,0.64688 1.04559,-3.35918 0.44658,-6.92223 0.60559,-10.38387 0,-5.84652 0,-11.69305 -10e-6,-17.53957 2.46913,2.83721 4.78987,5.81817 7.7048,8.22351 2.19305,1.99999 4.54465,4.39162 7.70946,4.37282 1.44901,-0.0567 2.78472,-1.0065 4.18869,-1.41814 2.13602,-0.91228 4.40155,-1.57798 6.45456,-2.64827 1.09771,-0.77754 -0.6924,-0.59788 -1.17277,-0.5528 -1.81115,0.0602 -3.6223,0.12046 -5.43345,0.18069 -5.78577,-2.06535 -10.60747,-6.07967 -15.54605,-9.62052 -2.03081,-1.13136 -2.10634,-1.76137 0.13664,-1.76804 1.94208,-0.26475 3.88415,-0.5295 5.82622,-0.79424 -0.32014,1.22539 -1.55071,3.18297 0.49882,3.52187 2.31023,-0.49426 3.25684,-3.13357 4.45868,-4.94405 2.14283,-3.59029 3.97004,-7.38957 6.60649,-10.64952 1.20888,-1.32396 0.27821,-3.26838 -1.39301,-3.70845 -2.2764,-0.94004 -4.71122,-2.87066 -7.2589,-1.97144 -4.0293,0.98645 -8.03501,2.07682 -12.13886,2.72971 -1e-5,-2.20416 -2e-5,-4.40833 -2e-5,-6.61249 3.79645,-1.06631 7.63667,-1.98315 11.40002,-3.16251 1.81062,-1.57359 -1.43574,-2.36691 -2.75609,-2.35538 -2.65426,-0.40595 -4.94038,1.66055 -7.55312,1.86305 -1.85282,0.87144 -0.69911,-1.56659 -0.83046,-2.58535 0.44222,-3.29388 1.21292,-6.98423 -0.90518,-9.89216 -0.43749,-0.53315 -1.1026,-0.78008 -1.77766,-0.79422 z m 9.97504,25.04843 c 1.52675,0.11355 3.18069,-0.10967 4.63117,0.25157 1.03111,3.18726 -0.72519,6.50933 -1.7287,9.50423 -0.0848,1.8359 -1.87948,1.37943 -3.16658,1.59845 -2.64324,0.25222 -5.28649,0.50445 -7.92974,0.75668 0.0831,-1.2578 0.16626,-2.51561 0.24939,-3.77341 2.58256,-0.84565 5.61665,-1.40216 7.10509,-3.93189 0.6682,-0.85004 1.93985,-2.07844 0.0699,-1.33707 -2.35603,0.52246 -4.71206,1.04493 -7.06809,1.56739 0.0119,-1.09011 0.0237,-2.18021 0.0356,-3.27032 2.56744,-0.61617 5.16431,-1.16647 7.80194,-1.36563 z m -11.54254,2.04843 c 0,1.10209 0,2.20418 0,3.30627 -2.45279,0.74607 -5.37584,0.98102 -7.26749,2.83906 -0.37646,1.95395 2.15854,1.2246 3.29873,1.0644 1.29916,-0.19907 2.59831,-0.39814 3.89747,-0.59721 0.1658,1.2964 0.0242,2.66485 0.0713,3.98907 -2.88997,0.3874 -5.77049,0.89612 -8.65686,1.32968 -1.05567,-3.21629 -2.14627,-6.42265 -2.85004,-9.73907 3.83563,-0.73074 7.67126,-1.46147 11.5069,-2.1922 z"
           id="path3341" />
      </g>
      <use
         height="1060"
         width="774"
         id="use8954"
         transform="translate(516.75,318.375)"
         xlink:href="#facesize"
         inkscape:tiled-clone-of="#facesize"
         y="0"
         x="0"
         style="display:inline" />
    </g>
  </g>
</svg>
