<?xml version="1.0" encoding="UTF-8" standalone="no"?>
<!-- Created with Inkscape (http://www.inkscape.org/) -->

<svg
   xmlns:dc="http://purl.org/dc/elements/1.1/"
   xmlns:cc="http://creativecommons.org/ns#"
   xmlns:rdf="http://www.w3.org/1999/02/22-rdf-syntax-ns#"
   xmlns:svg="http://www.w3.org/2000/svg"
   xmlns="http://www.w3.org/2000/svg"
   xmlns:xlink="http://www.w3.org/1999/xlink"
   xmlns:sodipodi="http://sodipodi.sourceforge.net/DTD/sodipodi-0.dtd"
   xmlns:inkscape="http://www.inkscape.org/namespaces/inkscape"
   width="52.047119"
   height="66.598175"
   id="svg3579"
   version="1.1"
   inkscape:version="0.48.4 r9939"
   sodipodi:docname="rdragon.svg">
  <defs
     id="defs3581" />
  <sodipodi:namedview
     id="base"
     pagecolor="#ffffff"
     bordercolor="#666666"
     borderopacity="1.0"
     inkscape:pageopacity="0.0"
     inkscape:pageshadow="2"
     inkscape:zoom="0.35"
     inkscape:cx="-317.54789"
     inkscape:cy="-139.62147"
     inkscape:document-units="px"
     inkscape:current-layer="layer1"
     showgrid="false"
     fit-margin-top="0"
     fit-margin-left="0"
     fit-margin-right="0"
     fit-margin-bottom="0"
     inkscape:window-width="1920"
     inkscape:window-height="1060"
     inkscape:window-x="-2"
     inkscape:window-y="-3"
     inkscape:window-maximized="1" />
  <metadata
     id="metadata3584">
    <rdf:RDF>
      <cc:Work
         rdf:about="">
        <dc:format>image/svg+xml</dc:format>
        <dc:type
           rdf:resource="http://purl.org/dc/dcmitype/StillImage" />
        <dc:title></dc:title>
      </cc:Work>
    </rdf:RDF>
  </metadata>
  <g
     inkscape:label="Layer 1"
     inkscape:groupmode="layer"
     id="layer1"
     transform="translate(-251.11932,-326.14255)">
    <g
       style="display:inline"
       id="WIND_1"
       transform="translate(-118.90514,-116.32692)"
       inkscape:label="#g14125">
      <g
         id="g11896">
        <path
           inkscape:connector-curvature="0"
           style="fill:#000000"
           d="m 377.58131,442.46947 1.995,0 0,10.695 -2.166,0 -4.275,-6.9575 0,6.9575 -1.995,0 0,-10.695 2.109,0 4.332,7.13 0,-7.13 z"
           id="path2451" />
        <path
           inkscape:connector-curvature="0"
           style="fill:#333333"
           d="m 411.09732,472.8858 c 1.06071,-1.20515 1.83067,-2.73565 3.18843,-3.61891 1.96288,-0.17426 3.66213,1.07365 5.14158,2.21914 1.82939,1.14689 -0.0189,1.86021 -1.09393,2.45502 -5.81303,3.40492 -11.62605,6.80983 -17.43908,10.21474 0.0643,4.44957 -0.26331,8.94811 0.62699,13.34001 1.4722,2.78268 5.00741,3.29862 7.85264,2.92801 3.59877,-0.49067 6.30602,-3.72479 7.38206,-7.02305 0.60277,-2.48749 1.20553,-4.97498 1.80829,-7.46247 0.21474,4.30947 0.8313,8.76277 3.04505,12.54131 1.91095,3.21617 -2.57845,4.3956 -4.81471,5.07706 -2.68485,0.938 -5.55934,1.31643 -8.35826,0.74417 -2.08174,-0.18211 -4.18591,-0.48593 -5.94696,-1.72549 -2.7488,-1.51787 -5.58613,-4.0264 -5.30011,-7.4764 -0.0178,-12.17183 0.0356,-24.34578 -0.0267,-36.51627 -0.17427,-2.33655 -1.55972,-4.28512 -2.53828,-6.33938 1.805,0.0767 3.61,0.15334 5.41501,0.23001 3.20832,1.20389 3.3987,5.37177 2.736,8.2225 -0.92477,6.24129 -2.20717,12.46542 -2.166,18.8025 3.22321,-0.70935 6.30032,-2.21253 8.50507,-4.70309 0.66098,-0.63647 1.32196,-1.27294 1.98294,-1.90941 z m -30.21002,7.245 c -1.72983,0.35803 -3.48787,-0.61753 -4.54574,-1.92625 -0.60361,-2.00922 1.99545,-1.62554 3.22824,-1.72095 2.79329,-0.14465 5.48455,-0.98727 8.15749,-1.7578 -0.31425,-3.62712 -0.41531,-7.30114 -1.16403,-10.86391 -0.0688,-2.32531 -4.86467,-5.57159 -0.58514,-6.11656 2.7901,-0.59528 5.46244,1.007 5.99213,3.86238 -0.0915,2.64082 -0.3869,5.5307 -0.40063,8.27353 -0.3952,12.66748 -0.44938,25.34801 -0.6895,38.01486 -0.90386,2.03978 -3.07198,1.12725 -3.69542,-0.54062 -0.79478,-1.81627 -0.27007,-3.89553 -0.36939,-5.83467 -0.21753,-1.72426 1.12582,-5.43269 0.38791,-5.99489 -2.88893,1.52138 -5.90625,2.90434 -8.25391,5.2366 -1.08775,1.36937 -2.57101,0.92415 -3.87601,0.29827 -1.92275,-0.7905 -3.44487,-2.26856 -4.91624,-3.67999 -0.70246,-1.30132 1.57668,-0.81207 2.37253,-1.19159 3.79108,-0.55962 7.58588,-1.3269 11.00844,-3.13933 2.69879,-1.10379 5.47582,-2.38104 4.58951,-5.76033 0.0598,-2.86561 0.0213,-5.73327 -0.11523,-8.59625 -2.38277,0.44419 -4.76576,0.87823 -7.12501,1.4375 z"
           id="path2851" />
      </g>
      <use
         height="1060"
         width="774"
         id="use8934"
         transform="translate(344.5,318.375)"
         xlink:href="#facesize"
         inkscape:tiled-clone-of="#facesize"
         y="0"
         x="0"
         style="display:inline" />
    </g>
  </g>
</svg>
