<?xml version="1.0" encoding="UTF-8" standalone="no"?>
<!-- Created with Inkscape (http://www.inkscape.org/) -->

<svg
   xmlns:dc="http://purl.org/dc/elements/1.1/"
   xmlns:cc="http://creativecommons.org/ns#"
   xmlns:rdf="http://www.w3.org/1999/02/22-rdf-syntax-ns#"
   xmlns:svg="http://www.w3.org/2000/svg"
   xmlns="http://www.w3.org/2000/svg"
   xmlns:xlink="http://www.w3.org/1999/xlink"
   xmlns:sodipodi="http://sodipodi.sourceforge.net/DTD/sodipodi-0.dtd"
   xmlns:inkscape="http://www.inkscape.org/namespaces/inkscape"
   width="400"
   height="539.44159"
   id="svg3579"
   version="1.1"
   inkscape:version="0.48.4 r9939"
   sodipodi:docname="Новый документ 2">
  <defs
     id="defs3581" />
  <sodipodi:namedview
     id="base"
     pagecolor="#ffffff"
     bordercolor="#666666"
     borderopacity="1.0"
     inkscape:pageopacity="0.0"
     inkscape:pageshadow="2"
     inkscape:zoom="0.35"
     inkscape:cx="-66.428587"
     inkscape:cy="7.0794365"
     inkscape:document-units="px"
     inkscape:current-layer="layer1"
     showgrid="false"
     fit-margin-top="0"
     fit-margin-left="0"
     fit-margin-right="0"
     fit-margin-bottom="0"
     inkscape:window-width="1920"
     inkscape:window-height="1060"
     inkscape:window-x="-2"
     inkscape:window-y="-3"
     inkscape:window-maximized="1" />
  <metadata
     id="metadata3584">
    <rdf:RDF>
      <cc:Work
         rdf:about="">
        <dc:format>image/svg+xml</dc:format>
        <dc:type
           rdf:resource="http://purl.org/dc/dcmitype/StillImage" />
        <dc:title></dc:title>
      </cc:Work>
    </rdf:RDF>
  </metadata>
  <g
     inkscape:label="Layer 1"
     inkscape:groupmode="layer"
     id="layer1"
     transform="translate(-1.5787389e-5,-4.6070067e-5)">
    <g
       style="display:inline"
       id="DRAGON_3"
       transform="matrix(7.6120943,0,0,7.6120943,-1499.5767,-4183.1265)"
       inkscape:label="#g14211">
      <path
         inkscape:connector-curvature="0"
         style="fill:#993300"
         d="m 217.76855,549.60638 c -2.47838,-0.46057 -0.37511,1.47971 0.0564,2.52982 2.28451,3.58388 1.51706,7.97138 1.82198,11.99394 0.0592,1.66315 0.10192,3.3264 0.0454,4.99028 -5.07586,0.93462 -10.13708,1.96247 -15.2475,2.69531 -1.23106,-0.62645 -1.29066,-3.00586 -3.01127,-2.58 -1.47049,0.60322 -2.95718,1.16663 -4.43433,1.75347 2.40742,2.08647 3.50013,5.06001 4.7276,7.89498 2.11928,4.20232 3.99709,8.52857 5.26434,13.06473 1.06498,3.31343 6.1097,1.56677 3.88143,-1.67909 -0.72165,-0.90773 1.72801,-0.39952 2.32514,-0.72968 1.94379,-0.26446 3.8999,-0.41023 5.8533,-0.58219 -0.0837,4.97256 -0.23802,9.94307 -0.57001,14.90387 0.0643,4.49823 -0.13043,9.01129 0.10065,13.49996 0.0986,1.08468 0.15456,2.33081 1.11065,3.04148 2.46283,-0.98755 2.76367,-4.0617 3.1393,-6.39608 0.5766,-3.48701 0.27535,-7.05275 0.46488,-10.57447 0.10484,-5.01659 0.20968,-10.03318 0.31452,-15.04978 6.00555,-0.64812 12.04017,-1.06844 18.02629,-1.86877 1.6464,-0.49936 2.24958,-2.98665 0.19257,-3.40505 -2.0132,-0.0734 0.32546,-1.78073 0.66435,-2.74486 1.48084,-2.07483 2.7613,-4.33179 4.36716,-6.29298 1.28737,-1.14414 3.61352,-2.17203 2.29283,-4.26801 -1.23484,-1.85109 -3.37532,-2.81649 -5.02321,-4.27659 -2.38489,-2.65255 -5.34381,-0.48727 -7.67118,0.8706 -3.93159,1.1301 -8.01416,1.45329 -12.06501,1.89661 0.0829,-4.25722 0.5365,-8.50199 0.66125,-12.76028 0.48276,-1.26093 2.38967,-3.08806 0.11908,-3.90967 -2.1844,-1.45563 -4.79257,-2.14332 -7.40663,-2.01755 z m 21.62439,21.16718 c 0.47136,2.54823 -0.37056,5.3917 -1.00819,7.93142 -0.76213,1.89731 -0.80914,4.92736 -3.46957,4.64246 -3.71545,0.685 -7.48739,0.96943 -11.23284,1.44174 0.23751,-4.21667 0.47501,-8.43335 0.71251,-12.65002 4.99671,-0.50918 9.96135,-1.42636 14.99809,-1.3656 z m -19.94999,2.1203 c -0.13063,4.12085 -0.26126,8.2417 -0.39189,12.36255 -3.25374,0.38332 -6.50747,0.76664 -9.7612,1.14996 -1.24687,-3.86926 -2.49374,-7.73852 -3.7406,-11.60779 4.63123,-0.6349 9.26246,-1.26981 13.89369,-1.90472 z"
         id="path2463" />
      <use
         height="1060"
         width="774"
         id="use8916"
         transform="translate(172.25,424.5)"
         xlink:href="#facesize"
         inkscape:tiled-clone-of="#facesize"
         y="0"
         x="0"
         style="display:inline" />
    </g>
  </g>
</svg>
