<?xml version="1.0" encoding="UTF-8" standalone="no"?>
<!-- Created with Inkscape (http://www.inkscape.org/) -->

<svg
   xmlns:dc="http://purl.org/dc/elements/1.1/"
   xmlns:cc="http://creativecommons.org/ns#"
   xmlns:rdf="http://www.w3.org/1999/02/22-rdf-syntax-ns#"
   xmlns:svg="http://www.w3.org/2000/svg"
   xmlns="http://www.w3.org/2000/svg"
   xmlns:xlink="http://www.w3.org/1999/xlink"
   xmlns:sodipodi="http://sodipodi.sourceforge.net/DTD/sodipodi-0.dtd"
   xmlns:inkscape="http://www.inkscape.org/namespaces/inkscape"
   width="80"
   height="100"
   id="svg3579"
   version="1.1"
   inkscape:version="0.48.4 r9939"
   sodipodi:docname="south.svg">
  <defs
     id="defs3581">
    <linearGradient
       inkscape:collect="always"
       xlink:href="#linearGradient27236"
       id="linearGradient3747"
       gradientUnits="userSpaceOnUse"
       gradientTransform="matrix(1.154862,0,0,1.199992,-217.6836,-1119)"
       spreadMethod="pad"
       x1="220.28651"
       y1="885.04584"
       x2="222.93102"
       y2="888.01709" />
    <linearGradient
       id="linearGradient27236">
      <stop
         id="stop27238"
         offset="0"
         style="stop-color:#5d5d5d;stop-opacity:1;" />
      <stop
         id="stop27240"
         offset="1"
         style="stop-color:black;stop-opacity:1;" />
    </linearGradient>
    <linearGradient
       inkscape:collect="always"
       xlink:href="#linearGradient28156"
       id="linearGradient3749"
       gradientUnits="userSpaceOnUse"
       gradientTransform="matrix(1.154862,0,0,1.199992,-212.5919,-1124.079)"
       spreadMethod="pad"
       x1="220.28651"
       y1="885.04584"
       x2="222.93102"
       y2="888.01709" />
    <linearGradient
       id="linearGradient28156">
      <stop
         id="stop28158"
         offset="0"
         style="stop-color:#e9e86e;stop-opacity:1;" />
      <stop
         id="stop28160"
         offset="1"
         style="stop-color:#e8a21a;stop-opacity:1;" />
    </linearGradient>
    <linearGradient
       inkscape:collect="always"
       xlink:href="#linearGradient3052"
       id="linearGradient3759"
       gradientUnits="userSpaceOnUse"
       gradientTransform="matrix(-1,0,0,1,146.16796,142.36524)"
       x1="205.16107"
       y1="35.479298"
       x2="205.16107"
       y2="48.081699" />
    <linearGradient
       id="linearGradient3052">
      <stop
         style="stop-color:#ffffff;stop-opacity:1;"
         offset="0"
         id="stop3054" />
      <stop
         style="stop-color:#ebebeb;stop-opacity:0;"
         offset="1"
         id="stop3056" />
    </linearGradient>
    <linearGradient
       inkscape:collect="always"
       xlink:href="#linearGradient2679"
       id="linearGradient3756"
       gradientUnits="userSpaceOnUse"
       gradientTransform="matrix(-0.995068,0,0,0.988025,-15.706636,287.60114)"
       x1="40.375843"
       y1="-27.558508"
       x2="40.375843"
       y2="-43.017994" />
    <linearGradient
       id="linearGradient2679">
      <stop
         style="stop-color:#e8a118;stop-opacity:0.93814433;"
         offset="0"
         id="stop2681" />
      <stop
         style="stop-color:#ebebeb;stop-opacity:0;"
         offset="1"
         id="stop2683" />
    </linearGradient>
    <linearGradient
       y2="-43.017994"
       x2="40.375843"
       y1="-27.558508"
       x1="40.375843"
       gradientTransform="matrix(-0.995068,0,0,0.988025,-15.706636,287.60114)"
       gradientUnits="userSpaceOnUse"
       id="linearGradient4194"
       xlink:href="#linearGradient2679"
       inkscape:collect="always" />
  </defs>
  <sodipodi:namedview
     id="base"
     pagecolor="#ffffff"
     bordercolor="#666666"
     borderopacity="1.0"
     inkscape:pageopacity="0.0"
     inkscape:pageshadow="2"
     inkscape:zoom="2.8"
     inkscape:cx="-18.057724"
     inkscape:cy="52.732787"
     inkscape:document-units="px"
     inkscape:current-layer="layer1"
     showgrid="false"
     fit-margin-top="0"
     fit-margin-left="0"
     fit-margin-right="0"
     fit-margin-bottom="0"
     inkscape:window-width="1920"
     inkscape:window-height="1060"
     inkscape:window-x="-2"
     inkscape:window-y="-3"
     inkscape:window-maximized="1" />
  <metadata
     id="metadata3584">
    <rdf:RDF>
      <cc:Work
         rdf:about="">
        <dc:format>image/svg+xml</dc:format>
        <dc:type
           rdf:resource="http://purl.org/dc/dcmitype/StillImage" />
        <dc:title />
      </cc:Work>
    </rdf:RDF>
  </metadata>
  <g
     inkscape:label="Layer 1"
     inkscape:groupmode="layer"
     id="layer1"
     transform="translate(90.74457,-302.57711)">
    <g
       style="display:inline"
       id="WIND_2"
       transform="matrix(1.4694519,0,0,1.420716,-759.22579,-326.04635)"
       inkscape:label="#g14119">
      <g
         id="g11892">
        <path
           inkscape:connector-curvature="0"
           style="fill:#000000"
           d="m 457.36975,445.28697 c 0,0.26833 0.114,0.47917 0.342,0.6325 l 1.938,0.7475 2.337,0.7475 1.14,1.0925 c 0.304,0.46 0.456,1.035 0.456,1.725 l -0.513,1.725 c -0.342,0.53667 -0.817,0.93917 -1.425,1.2075 l -2.337,0.345 c -1.33,0 -2.356,-0.30667 -3.078,-0.92 -0.722,-0.61333 -1.159,-1.53333 -1.311,-2.76 l 2.109,-0.1725 c 0.114,0.69 0.361,1.2075 0.741,1.5525 0.38,0.345 0.912,0.5175 1.596,0.5175 0.684,0 1.197,-0.15333 1.539,-0.46 l 0.513,-1.035 -0.228,-0.6325 -0.741,-0.46 -1.71,-0.5175 c -1.178,-0.26833 -1.995,-0.61333 -2.451,-1.035 -0.646,-0.575 -0.969,-1.28417 -0.969,-2.1275 0,-0.575 0.152,-1.0925 0.456,-1.5525 0.304,-0.46 0.741,-0.82417 1.311,-1.0925 l 2.109,-0.345 c 1.33,0 2.337,0.2875 3.021,0.8625 0.684,0.575 1.026,1.36083 1.026,2.3575 l -2.109,0.115 c -0.114,-0.575 -0.304,-0.9775 -0.57,-1.2075 -0.304,-0.23 -0.76,-0.345 -1.368,-0.345 -0.646,0 -1.14,0.13417 -1.482,0.4025 -0.228,0.15333 -0.342,0.36417 -0.342,0.6325 z"
           id="path2453" />
        <path
           inkscape:connector-curvature="0"
           style="fill:#333333"
           d="m 481.34024,446.77209 c -1.63239,0.33275 -5.90147,1.44077 -2.72752,2.87386 1.42124,2.45956 0.58013,5.45891 0.5857,8.15558 -0.15054,2.10836 -0.626,4.17293 -0.95748,6.25648 -3.90289,2.14522 -8.4812,2.12589 -12.75398,3.01374 -0.56323,0.8038 0.7586,2.58228 2.0131,2.25433 2.35261,0.38822 4.73156,-0.14582 7.06518,-0.45318 0.92919,-0.0905 2.36402,-0.72921 2.97634,-0.47614 -0.2603,2.55908 -0.68215,5.09341 -1.29564,7.5925 -1.1994,0.28749 -2.3988,0.57499 -3.5982,0.86249 -0.55686,-1.96007 -2.81666,-2.18778 -2.54361,0.2525 -0.72416,1.01234 -2.96278,0.66595 -4.19393,1.25732 -1.54307,0.4111 -3.03723,0.98156 -4.55556,1.47302 -0.51321,-0.97998 -0.21269,-2.48218 -1.12107,-3.12074 -2.20583,-2.06911 -7.25825,-0.0312 -3.95217,2.60975 2.38385,4.4094 2.93029,9.47682 4.23178,14.25788 1.06652,4.54194 2.02688,9.2985 5.00956,13.02652 1.01219,2.21219 2.73371,0.41869 2.7238,-1.17046 0.62686,-1.823 0.65493,-3.8008 -0.33026,-5.52898 -2.19285,-5.42515 -4.6503,-10.87157 -5.35672,-16.72632 -0.18397,-1.5775 1.71134,-1.22242 2.66684,-1.66472 1.67131,-0.45603 3.34972,-0.88434 5.03456,-1.28763 0.26923,2.93267 2.4806,4.9456 4.3106,7.00781 -2.47,0.2875 -4.94,0.57499 -7.41,0.86249 1.32862,1.66354 3.16964,3.0786 5.43738,2.83907 1.69636,0.005 3.39621,0.0648 5.07202,-0.25155 0,1.47343 0,2.94686 0,4.42029 -2.75622,0.23837 -5.51275,0.47342 -8.26502,0.7547 1.00226,1.36519 1.61838,3.54178 3.77659,3.24292 1.49874,-0.0117 2.99215,-0.17835 4.48843,-0.2601 0.0855,2.59871 -0.18615,5.23385 0.16739,7.80561 0.32435,2.66461 3.39922,2.33488 3.16476,-0.25593 0.4734,-2.60449 0.56573,-5.24041 0.30155,-7.87311 2.87031,-0.39455 5.74802,-0.67527 8.6213,-1.0422 1.97811,-0.19433 2.178,-1.96252 1.31809,-3.37814 -1.48356,-1.15064 -3.45811,-0.0352 -5.17374,-0.007 -1.40633,0.14904 -2.82147,0.2144 -4.23126,0.3305 0,-1.49739 0,-2.99479 0,-4.49219 3.37944,-0.61619 6.87073,-0.79171 10.1531,-1.79687 0.98172,-0.98643 0.47404,-3.45799 -1.25999,-3.32558 -2.12314,0.26338 -4.20545,0.85534 -6.32811,1.16933 0.97522,-3.27936 2.991,-6.10512 4.59561,-9.09219 3.39722,-0.0273 7.26252,-1.14294 10.0911,1.38253 1.61847,0.7162 1.12281,2.29841 0.91343,3.60196 -0.86877,6.65469 -4.00232,12.70609 -6.30732,18.93984 -0.64578,1.39514 -0.96636,2.9856 -1.88642,4.21832 -1.96363,1.11562 -3.80601,-0.93962 -5.54609,-1.68072 -2.47595,-1.7689 0.14188,2.85352 0.10334,4.0891 0.95011,1.51214 0.5178,5.69832 2.72563,5.40286 3.47529,-0.53001 6.60358,-3.11507 7.56701,-6.52585 3.10078,-7.38193 6.27648,-14.74029 9.69672,-21.97797 0.9997,-1.62304 4.40941,-2.83602 2.3597,-5.1202 -2.06644,-2.36663 -4.56638,-4.4679 -7.43838,-5.75593 -3.29443,-0.86074 -6.70366,-0.0502 -10.03433,0.15576 2.93608,-2.23645 -2.27764,-7.96039 -3.2063,-3.3422 -0.5106,1.34167 -1.0212,2.68333 -1.5318,4.025 -2.43083,0.31728 -4.87815,0.50123 -7.30319,0.86249 1.16097,-2.46904 2.19247,-4.99686 3.06378,-7.58279 3.75895,-0.93426 7.60251,-1.59078 11.29841,-2.7321 1.6481,-0.66886 0.83596,-2.67602 0.4935,-3.91635 -3.28074,-1.24772 -6.41684,1.5126 -9.61631,1.98017 -2.77624,0.99554 -0.26291,-3.65365 -0.30366,-5.18696 0.66355,-2.48305 1.51876,-4.94957 1.83307,-7.50258 -0.54086,-1.85364 -2.6119,-3.68323 -4.63131,-3.44999 z m 3.45572,30.51093 c -2.00478,3.01847 -3.48503,6.51141 -6.22179,8.94278 -1.61834,0.0514 -2.09507,-2.37606 -2.86879,-3.53352 -0.56794,-1.1083 -1.13588,-2.21659 -1.70382,-3.32488 3.58131,-0.7754 7.19842,-1.37975 10.7944,-2.08438 z"
           id="path3243" />
      </g>
      <use
         height="1060"
         width="774"
         id="use8944"
         transform="translate(430.625,318.375)"
         xlink:href="#facesize"
         inkscape:tiled-clone-of="#facesize"
         y="0"
         x="0"
         style="display:inline" />
    </g>
  </g>
</svg>
