<?xml version="1.0" encoding="UTF-8" standalone="no"?>
<!-- Created with Inkscape (http://www.inkscape.org/) -->

<svg
   xmlns:dc="http://purl.org/dc/elements/1.1/"
   xmlns:cc="http://creativecommons.org/ns#"
   xmlns:rdf="http://www.w3.org/1999/02/22-rdf-syntax-ns#"
   xmlns:svg="http://www.w3.org/2000/svg"
   xmlns="http://www.w3.org/2000/svg"
   xmlns:xlink="http://www.w3.org/1999/xlink"
   xmlns:sodipodi="http://sodipodi.sourceforge.net/DTD/sodipodi-0.dtd"
   xmlns:inkscape="http://www.inkscape.org/namespaces/inkscape"
   width="80"
   height="100"
   id="svg3579"
   version="1.1"
   inkscape:version="0.48.4 r9939"
   sodipodi:docname="west.svg">
  <defs
     id="defs3581">
    <linearGradient
       inkscape:collect="always"
       xlink:href="#linearGradient27236"
       id="linearGradient3747"
       gradientUnits="userSpaceOnUse"
       gradientTransform="matrix(1.154862,0,0,1.199992,-217.6836,-1119)"
       spreadMethod="pad"
       x1="220.28651"
       y1="885.04584"
       x2="222.93102"
       y2="888.01709" />
    <linearGradient
       id="linearGradient27236">
      <stop
         id="stop27238"
         offset="0"
         style="stop-color:#5d5d5d;stop-opacity:1;" />
      <stop
         id="stop27240"
         offset="1"
         style="stop-color:black;stop-opacity:1;" />
    </linearGradient>
    <linearGradient
       inkscape:collect="always"
       xlink:href="#linearGradient28156"
       id="linearGradient3749"
       gradientUnits="userSpaceOnUse"
       gradientTransform="matrix(1.154862,0,0,1.199992,-212.5919,-1124.079)"
       spreadMethod="pad"
       x1="220.28651"
       y1="885.04584"
       x2="222.93102"
       y2="888.01709" />
    <linearGradient
       id="linearGradient28156">
      <stop
         id="stop28158"
         offset="0"
         style="stop-color:#e9e86e;stop-opacity:1;" />
      <stop
         id="stop28160"
         offset="1"
         style="stop-color:#e8a21a;stop-opacity:1;" />
    </linearGradient>
    <linearGradient
       inkscape:collect="always"
       xlink:href="#linearGradient3052"
       id="linearGradient3759"
       gradientUnits="userSpaceOnUse"
       gradientTransform="matrix(-1,0,0,1,146.16796,142.36524)"
       x1="205.16107"
       y1="35.479298"
       x2="205.16107"
       y2="48.081699" />
    <linearGradient
       id="linearGradient3052">
      <stop
         style="stop-color:#ffffff;stop-opacity:1;"
         offset="0"
         id="stop3054" />
      <stop
         style="stop-color:#ebebeb;stop-opacity:0;"
         offset="1"
         id="stop3056" />
    </linearGradient>
    <linearGradient
       inkscape:collect="always"
       xlink:href="#linearGradient2679"
       id="linearGradient3756"
       gradientUnits="userSpaceOnUse"
       gradientTransform="matrix(-0.995068,0,0,0.988025,-15.706636,287.60114)"
       x1="40.375843"
       y1="-27.558508"
       x2="40.375843"
       y2="-43.017994" />
    <linearGradient
       id="linearGradient2679">
      <stop
         style="stop-color:#e8a118;stop-opacity:0.93814433;"
         offset="0"
         id="stop2681" />
      <stop
         style="stop-color:#ebebeb;stop-opacity:0;"
         offset="1"
         id="stop2683" />
    </linearGradient>
    <linearGradient
       y2="-43.017994"
       x2="40.375843"
       y1="-27.558508"
       x1="40.375843"
       gradientTransform="matrix(-0.995068,0,0,0.988025,-15.706636,287.60114)"
       gradientUnits="userSpaceOnUse"
       id="linearGradient4343"
       xlink:href="#linearGradient2679"
       inkscape:collect="always" />
  </defs>
  <sodipodi:namedview
     id="base"
     pagecolor="#ffffff"
     bordercolor="#666666"
     borderopacity="1.0"
     inkscape:pageopacity="0.0"
     inkscape:pageshadow="2"
     inkscape:zoom="2.8"
     inkscape:cx="153.42442"
     inkscape:cy="-0.17821989"
     inkscape:document-units="px"
     inkscape:current-layer="layer1"
     showgrid="false"
     fit-margin-top="0"
     fit-margin-left="0"
     fit-margin-right="0"
     fit-margin-bottom="0"
     inkscape:window-width="1920"
     inkscape:window-height="1060"
     inkscape:window-x="-2"
     inkscape:window-y="-3"
     inkscape:window-maximized="1" />
  <metadata
     id="metadata3584">
    <rdf:RDF>
      <cc:Work
         rdf:about="">
        <dc:format>image/svg+xml</dc:format>
        <dc:type
           rdf:resource="http://purl.org/dc/dcmitype/StillImage" />
        <dc:title />
      </cc:Work>
    </rdf:RDF>
  </metadata>
  <g
     inkscape:label="Layer 1"
     inkscape:groupmode="layer"
     id="layer1"
     transform="translate(93.925141,-300.12574)">
    <g
       style="display:inline"
       id="WIND_4"
       transform="matrix(1.1760684,0,0,1.1434226,-829.09334,-202.31358)"
       inkscape:label="#g14107">
      <g
         id="g11884">
        <path
           inkscape:connector-curvature="0"
           style="fill:#000000"
           d="m 633.94526,442.46947 2.565,0 1.881,7.475 1.596,-7.475 2.166,0 -2.565,10.695 -2.28,0 -2.109,-7.9925 -2.109,7.9925 -2.337,0 -2.508,-10.695 2.166,0 1.596,7.36 1.938,-7.36 z"
           id="path1434" />
        <path
           inkscape:connector-curvature="0"
           style="fill:#333333"
           d="m 672.13525,462.45901 c -4.13251,0.2118 -8.27967,0.52749 -12.27032,1.70086 -3.85434,1.07629 -7.83214,1.57371 -11.7852,2.12743 -5.04567,0.34485 -10.09889,0.82303 -15.16048,0.6567 -1.7013,-0.29277 -0.97554,-2.46547 -1.28604,-3.70875 -0.0153,-3.83983 4.22156,-1.67645 6.19652,-0.81084 5.95357,1.49262 12.10825,-0.0908 17.96813,-1.29801 4.50469,-1.01578 8.85963,-2.62263 13.29821,-3.84722 1.76433,0.1076 3.90279,-0.69291 5.223,0.89158 1.34223,1.73553 -0.35213,3.92154 -2.18382,4.28825 z m -14.30499,5.01307 c -1.45071,0.24045 -2.90527,0.45923 -4.34619,0.75467 3.00607,1.27544 3.0092,5.10696 2.98946,7.87964 -0.0164,1.79349 0.25388,4.05248 -2.09985,3.68973 -1.31779,0.18053 -2.63559,0.36106 -3.95339,0.54159 0.0343,-3.30363 -0.16471,-6.65084 -1.08801,-9.83253 -0.61553,-2.03169 -5.2151,-1.6499 -4.67665,0.52025 1.45266,3.05652 1.58284,6.4684 1.88154,9.77947 -3.27539,0.65393 -6.57233,1.18618 -9.8681,1.72498 -0.41715,-0.79354 -0.57173,-1.95538 -1.15025,-2.52257 -2.18536,-0.13793 -4.37,-0.25896 -6.53028,0.18742 -2.51881,-0.0429 1.37634,2.37536 1.57301,3.57725 3.86863,6.62571 6.12823,14.04859 8.29043,21.36798 0.30536,1.64162 1.19944,5.35212 3.42909,4.0458 1.40774,-0.80966 0.7839,-2.59281 0.55108,-3.87149 4.31048,-0.99071 8.67083,-1.97249 13.11001,-2.08438 2.92755,0.60865 4.34313,3.68604 5.94199,5.91621 1.11503,2.12756 4.0828,4.67876 5.8606,1.67021 2.01742,-2.27772 2.75368,-5.36644 4.05406,-8.06612 2.31343,-5.19019 3.7727,-10.83465 7.07403,-15.53406 0.78466,-0.94783 2.28252,-1.64499 1.96679,-3.09674 -0.78546,-1.80051 -2.22965,-3.33533 -3.68452,-4.66637 -1.38081,-1.29491 -3.0014,-2.55894 -4.99495,-2.44621 -2.15244,0.0433 -4.28322,0.65363 -6.4271,0.92114 -1.96927,0.32409 -3.93854,0.64817 -5.9078,0.97226 0.83446,-3.36508 1.84109,-6.69827 2.4938,-10.09845 -0.44774,-1.447 -2.37381,-1.11137 -3.5709,-1.26795 -0.30597,-0.0206 -0.61193,-0.0412 -0.9179,-0.0617 z m 10.08191,13.33282 c 0.95554,0.11219 2.04399,-0.0702 2.91989,0.21847 1.51411,0.96077 0.6536,2.91238 0.75649,4.3749 -0.23996,6.59373 -3.34591,12.60823 -5.99199,18.51443 -0.9021,0.62698 -2.48046,-2.03991 -3.88045,-2.23559 -2.37353,-1.63348 -5.33161,-1.66634 -8.0416,-1.06427 -3.86195,0.49994 -7.72724,0.9762 -11.59046,1.46706 -1.75435,-4.97934 -2.51099,-10.22353 -4.04649,-15.26597 -0.26343,-0.90026 -0.84996,-2.01007 0.61534,-1.78912 2.65185,-0.41238 5.30371,-0.82475 7.95556,-1.23712 0.0103,3.28135 0.19822,6.77972 -1.22181,9.80738 -0.54272,0.98348 -1.08544,1.96696 -1.62817,2.95043 3.35831,0.20809 5.08689,-3.38432 5.82519,-6.12896 0.65704,-2.34137 0.89371,-4.77926 0.94349,-7.20384 1.82878,-0.26354 3.65755,-0.52707 5.48633,-0.79061 -0.14954,2.93301 -0.53794,5.88061 -0.3813,8.81164 0.88085,2.69018 4.15206,3.74229 6.73884,3.84753 1.27796,-0.0562 3.33375,0.47449 3.65303,-1.267 -0.0899,-3.35075 -3.66787,-4.01902 -6.29602,-4.36571 -1.41327,-1.70772 -0.074,-4.66058 -0.16028,-6.81825 0.30883,-0.86062 1.89892,-0.51348 2.75572,-0.85756 1.86289,-0.32261 3.72579,-0.64522 5.58869,-0.96784 z"
           id="path3639" />
      </g>
      <use
         height="1060"
         width="774"
         id="use8964"
         transform="translate(602.875,318.375)"
         xlink:href="#facesize"
         inkscape:tiled-clone-of="#facesize"
         y="0"
         x="0"
         style="display:inline" />
    </g>
  </g>
</svg>
