<?xml version="1.0" encoding="UTF-8" standalone="no"?>
<!-- Created with Inkscape (http://www.inkscape.org/) -->

<svg
   xmlns:dc="http://purl.org/dc/elements/1.1/"
   xmlns:cc="http://creativecommons.org/ns#"
   xmlns:rdf="http://www.w3.org/1999/02/22-rdf-syntax-ns#"
   xmlns:svg="http://www.w3.org/2000/svg"
   xmlns="http://www.w3.org/2000/svg"
   xmlns:xlink="http://www.w3.org/1999/xlink"
   xmlns:sodipodi="http://sodipodi.sourceforge.net/DTD/sodipodi-0.dtd"
   xmlns:inkscape="http://www.inkscape.org/namespaces/inkscape"
   width="80"
   height="100"
   id="svg3624"
   version="1.1"
   inkscape:version="0.48.4 r9939"
   sodipodi:docname="Новый документ 2">
  <defs
     id="defs3626">
    <linearGradient
       id="linearGradient4116">
      <stop
         id="stop4118"
         offset="0"
         style="stop-color:black;stop-opacity:0" />
      <stop
         id="stop4120"
         offset="1"
         style="stop-color:black;stop-opacity:1" />
    </linearGradient>
    <linearGradient
       id="linearGradient3581">
      <stop
         id="stop3583"
         offset="0"
         style="stop-color:black;stop-opacity:0" />
      <stop
         id="stop3585"
         offset="1"
         style="stop-color:black;stop-opacity:1" />
    </linearGradient>
    <linearGradient
       id="linearGradient3296">
      <stop
         style="stop-color:black;stop-opacity:0"
         offset="0"
         id="stop3298" />
      <stop
         style="stop-color:black;stop-opacity:1"
         offset="1"
         id="stop3300" />
    </linearGradient>
    <linearGradient
       id="linearGradient3302">
      <stop
         style="stop-color:black;stop-opacity:0"
         offset="0"
         id="stop3304" />
      <stop
         style="stop-color:black;stop-opacity:1"
         offset="1"
         id="stop3306" />
    </linearGradient>
    <linearGradient
       id="linearGradient27236">
      <stop
         id="stop27238"
         offset="0"
         style="stop-color:#5d5d5d;stop-opacity:1;" />
      <stop
         id="stop27240"
         offset="1"
         style="stop-color:black;stop-opacity:1;" />
    </linearGradient>
    <linearGradient
       id="linearGradient28156">
      <stop
         id="stop28158"
         offset="0"
         style="stop-color:#e9e86e;stop-opacity:1;" />
      <stop
         id="stop28160"
         offset="1"
         style="stop-color:#e8a21a;stop-opacity:1;" />
    </linearGradient>
    <linearGradient
       id="linearGradient3052">
      <stop
         style="stop-color:#ffffff;stop-opacity:1;"
         offset="0"
         id="stop3054" />
      <stop
         style="stop-color:#ebebeb;stop-opacity:0;"
         offset="1"
         id="stop3056" />
    </linearGradient>
    <linearGradient
       id="linearGradient2679">
      <stop
         style="stop-color:#e8a118;stop-opacity:0.93814433;"
         offset="0"
         id="stop2681" />
      <stop
         style="stop-color:#ebebeb;stop-opacity:0;"
         offset="1"
         id="stop2683" />
    </linearGradient>
    <linearGradient
       inkscape:collect="always"
       xlink:href="#linearGradient27236"
       id="linearGradient3747"
       gradientUnits="userSpaceOnUse"
       gradientTransform="matrix(1.154862,0,0,1.199992,-217.6836,-1119)"
       spreadMethod="pad"
       x1="220.28651"
       y1="885.04584"
       x2="222.93102"
       y2="888.01709" />
    <linearGradient
       inkscape:collect="always"
       xlink:href="#linearGradient28156"
       id="linearGradient3749"
       gradientUnits="userSpaceOnUse"
       gradientTransform="matrix(1.154862,0,0,1.199992,-212.5919,-1124.079)"
       spreadMethod="pad"
       x1="220.28651"
       y1="885.04584"
       x2="222.93102"
       y2="888.01709" />
    <linearGradient
       inkscape:collect="always"
       xlink:href="#linearGradient2679"
       id="linearGradient3756"
       gradientUnits="userSpaceOnUse"
       gradientTransform="matrix(-0.995068,0,0,0.988025,-15.706636,287.60114)"
       x1="40.375843"
       y1="-27.558508"
       x2="40.375843"
       y2="-43.017994" />
    <linearGradient
       inkscape:collect="always"
       xlink:href="#linearGradient3052"
       id="linearGradient3759"
       gradientUnits="userSpaceOnUse"
       gradientTransform="matrix(-1,0,0,1,146.16796,142.36524)"
       x1="205.16107"
       y1="35.479298"
       x2="205.16107"
       y2="48.081699" />
  </defs>
  <sodipodi:namedview
     id="base"
     pagecolor="#ffffff"
     bordercolor="#666666"
     borderopacity="1.0"
     inkscape:pageopacity="0.0"
     inkscape:pageshadow="2"
     inkscape:zoom="1.4"
     inkscape:cx="142.27334"
     inkscape:cy="-36.829974"
     inkscape:document-units="px"
     inkscape:current-layer="layer1"
     showgrid="false"
     inkscape:snap-grids="false"
     fit-margin-top="0"
     fit-margin-left="0"
     fit-margin-right="0"
     fit-margin-bottom="0"
     inkscape:window-width="1920"
     inkscape:window-height="1060"
     inkscape:window-x="-2"
     inkscape:window-y="-3"
     inkscape:window-maximized="1" />
  <metadata
     id="metadata3629">
    <rdf:RDF>
      <cc:Work
         rdf:about="">
        <dc:format>image/svg+xml</dc:format>
        <dc:type
           rdf:resource="http://purl.org/dc/dcmitype/StillImage" />
        <dc:title></dc:title>
      </cc:Work>
    </rdf:RDF>
  </metadata>
  <g
     inkscape:label="Layer 1"
     inkscape:groupmode="layer"
     id="layer1"
     transform="translate(-1.703932e-6,2.5322934e-5)">
    <g
       id="g3776"
       transform="translate(93.571426,-171.42857)">
      <g
         id="g2049"
         transform="matrix(-0.995068,0,0,0.988025,-15.706606,287.60113)">
        <path
           style="color:#000000;fill:url(#linearGradient3747);fill-opacity:1;fill-rule:evenodd;stroke:none;stroke-width:0.5;marker:none;visibility:visible;display:inline;overflow:visible"
           d="m 7.573078,-112.24945 c -3.054103,0.61298 -5.035315,3.92165 -7.457235,5.82791 -1.9158708,1.99628 -2.1680465,3.69827 -2.250827,6.39628 0,26.537557 0,53.075111 0,79.612676 -0.04407,3.642431 3.720678,4.286363 6.444802,3.974973 19.721944,0 58.125957,0.0035 59.165819,0 2.517681,-0.0082 6.176921,-5.19324 9.415732,-8.154797 0.613567,-3.691354 0.146079,-7.528628 0.29233,-11.282226 -0.01638,-24.318312 0.03276,-48.638281 -0.02459,-72.955536 -0.313337,-2.76304 -3.036907,-3.76717 -5.359474,-3.41928 -20.075515,0 -40.151044,0 -60.22656,0 z"
           id="path2051"
           sodipodi:nodetypes="cccccsccccc"
           inkscape:connector-curvature="0" />
        <path
           style="color:#000000;fill:url(#linearGradient3749);fill-opacity:1;fill-rule:evenodd;stroke:none;stroke-width:0.5;marker:none;visibility:visible;display:inline;overflow:visible"
           d="m 12.664716,-117.3279 c -3.054102,0.61298 -4.762502,3.298 -7.457235,5.82791 -2.297818,1.99628 -2.222602,3.13131 -2.250827,6.39628 0,26.537558 0,53.075112 0,79.612677 -0.044069,3.642431 3.720678,4.286358 6.444802,3.974972 19.721944,0 59.574675,0.214259 60.322888,0 0.381254,-0.109175 6.752341,-6.575558 7.658469,-7.814622 0.974508,-1.332566 0.596672,-7.713354 0.742924,-11.466953 -0.405813,-24.318312 -0.336885,-48.793728 0.125014,-73.110984 -0.313338,-2.76304 -3.036908,-3.76717 -5.359474,-3.41928 -20.075517,0 -40.151044,0 -60.226561,0 z"
           id="path2053"
           sodipodi:nodetypes="cccccsscccc"
           inkscape:connector-curvature="0" />
        <path
           style="fill:#ebe972;fill-opacity:1"
           d="m 77.049775,-116.3806 c 0.731408,0.75999 1.097118,1.69999 1.097118,2.81998 l 0,82.019433 c 0,1.079993 -0.36571,2.019982 -1.097118,2.819981 -0.73141,0.75999 -1.616808,1.139991 -2.656184,1.139991 l -61.785139,0 c -1.039377,0 -1.924775,-0.380001 -2.656184,-1.139991 -0.731409,-0.799999 -1.09712,-1.739988 -1.09712,-2.819981 l 0,-82.019433 c 0,-1.11999 0.365711,-2.05999 1.09712,-2.81998 0.731409,-0.8 1.616807,-1.19999 2.656184,-1.19999 l 61.785139,0 c 1.039376,0 1.924774,0.39999 2.656184,1.19999 z"
           id="path2055"
           inkscape:connector-curvature="0" />
        <path
           style="fill:#ebebad;fill-opacity:1"
           d="m 73.758416,-115.9606 c 0.73141,0 1.347344,0.27999 1.84778,0.83999 0.53894,0.56 0.808404,1.22 0.808404,1.97999 l 0,81.059436 c 0,0.759991 -0.269464,1.419987 -0.808404,1.979986 -0.500436,0.56 -1.11637,0.839995 -1.84778,0.839995 l -60.51479,0 c -0.731409,0 -1.347343,-0.279995 -1.847781,-0.839995 -0.538939,-0.559999 -0.808403,-1.219995 -0.808403,-1.979986 l 0,-81.059436 c 0,-0.75999 0.269464,-1.41999 0.808403,-1.97999 0.500438,-0.56 1.116372,-0.83999 1.847781,-0.83999 l 60.51479,0 z"
           id="path2057"
           inkscape:connector-curvature="0" />
      </g>
      <path
         id="path2059"
         d="m -88.201196,173.91238 c -0.70604,0 -1.30062,0.26837 -1.7837,0.80512 -0.52025,0.53676 -0.78035,1.16936 -0.78035,1.8978 l 0,16.88654 c 0,0.72843 0.2601,1.36102 0.78035,1.89776 0.48308,0.53677 1.07766,0.80514 1.7837,0.80514 l 58.41617,0 c 0.70604,0 1.30062,-0.26837 1.7837,-0.80514 0.52025,-0.53674 0.78037,-1.16933 0.78037,-1.89776 l 0,-16.88654 c 0,-0.72844 -0.26012,-1.36104 -0.78037,-1.8978 -0.48308,-0.53675 -1.07766,-0.80512 -1.7837,-0.80512 l -58.41617,0 z"
         style="fill:url(#linearGradient3759);fill-opacity:1;display:inline"
         sodipodi:nodetypes="ccccccccccccc"
         inkscape:connector-curvature="0" />
      <path
         id="path2061"
         d="m -92.376406,237.65248 c -0.7278,0.75089 -1.0917,1.67963 -1.0917,2.78621 l 0,15.99897 c 0,1.06706 0.3639,1.99579 1.0917,2.78621 0.72781,0.75089 1.60884,1.12634 2.64309,1.12634 l 61.48041,0 c 1.03425,0 1.91528,-0.37545 2.64309,-1.12634 0.7278,-0.79042 1.09171,-1.71915 1.09171,-2.78621 l 0,-15.99897 c 0,-1.10658 -0.36391,-2.03532 -1.09171,-2.78621 -0.72781,-0.79042 -1.60884,-1.18562 -2.64309,-1.18562 l -61.48041,0 c -1.03425,0 -1.91528,0.3952 -2.64309,1.18562 z"
         style="fill:url(#linearGradient3756);fill-opacity:1;display:inline"
         sodipodi:nodetypes="ccccccccccccc"
         inkscape:connector-curvature="0" />
    </g>
  </g>
</svg>
